<?xml version="1.0" encoding="UTF-8" standalone="no"?>
<svg
   xmlns:dc="http://purl.org/dc/elements/1.1/"
   xmlns:cc="http://creativecommons.org/ns#"
   xmlns:rdf="http://www.w3.org/1999/02/22-rdf-syntax-ns#"
   xmlns:svg="http://www.w3.org/2000/svg"
   xmlns="http://www.w3.org/2000/svg"
   xmlns:xlink="http://www.w3.org/1999/xlink"
   xmlns:sodipodi="http://sodipodi.sourceforge.net/DTD/sodipodi-0.dtd"
   xmlns:inkscape="http://www.inkscape.org/namespaces/inkscape"
   inkscape:export-ydpi="96"
   inkscape:export-xdpi="96"
   width="480"
   height="300"
   id="svg11300"
   sodipodi:version="0.32"
   inkscape:version="1.0.2 (e86c870, 2021-01-15)"
   sodipodi:docname="mscore.svg"
   inkscape:output_extension="org.inkscape.output.svg.inkscape"
   version="1.0"
   style="display:inline;enable-background:new"
   inkscape:export-filename="/home/user/Downloads/aa.png">
  <sodipodi:namedview
     stroke="#ef2929"
     fill="#f57900"
     id="base"
     pagecolor="#777777"
     bordercolor="#666666"
     borderopacity="0.25490196"
     inkscape:pageopacity="0"
     inkscape:pageshadow="2"
     inkscape:zoom="1.4142136"
     inkscape:cx="232.4491"
     inkscape:cy="144.21896"
     inkscape:current-layer="layer6"
     showgrid="false"
     inkscape:grid-bbox="true"
     inkscape:document-units="px"
     inkscape:showpageshadow="false"
     inkscape:window-width="1366"
     inkscape:window-height="703"
     inkscape:window-x="0"
     inkscape:window-y="0"
     width="400px"
     height="300px"
     inkscape:snap-nodes="true"
     inkscape:snap-bbox="true"
     gridtolerance="10000"
     inkscape:object-nodes="true"
     inkscape:snap-grids="true"
     showguides="true"
     inkscape:guide-bbox="true"
     inkscape:window-maximized="1"
     inkscape:bbox-nodes="true"
     inkscape:bbox-paths="true"
     inkscape:snap-bbox-edge-midpoints="true"
     inkscape:snap-bbox-midpoints="true"
     inkscape:document-rotation="0">
    <inkscape:grid
       spacingy="1"
       spacingx="1"
       id="grid5883"
       type="xygrid"
       enabled="true"
       visible="true"
       empspacing="4"
       snapvisiblegridlinesonly="true"
       dotted="false"
       color="#000000"
       opacity="0.1254902"
       empcolor="#203ef3"
       empopacity="0.36470588"
       originx="0"
       originy="0" />
    <inkscape:grid
       type="xygrid"
       id="grid11592"
       empspacing="8"
       visible="true"
       enabled="false"
       spacingx="0.5"
       spacingy="0.5"
       color="#ff0000"
       opacity="0.1254902"
       empcolor="#ff0000"
       empopacity="0.25098039"
       snapvisiblegridlinesonly="true"
       dotted="true"
       originx="0"
       originy="0" />
  </sodipodi:namedview>
  <defs
     id="defs3">
    <linearGradient
       inkscape:collect="always"
       xlink:href="#outerBackgroundGradient-2"
       id="linearGradient4256"
       x1="417"
       y1="148"
       x2="431"
       y2="148"
       gradientUnits="userSpaceOnUse"
       gradientTransform="matrix(0,-1,1,0,276,572)" />
    <linearGradient
       inkscape:collect="always"
       xlink:href="#outerBackgroundGradient-2"
       id="linearGradient4260"
       x1="418"
       y1="68"
       x2="446"
       y2="68"
       gradientUnits="userSpaceOnUse"
       gradientTransform="matrix(0,-1,1,0,364,500)" />
    <linearGradient
       inkscape:collect="always"
       xlink:href="#outerBackgroundGradient-2"
       id="linearGradient4262"
       x1="292"
       y1="244"
       x2="332"
       y2="244"
       gradientUnits="userSpaceOnUse"
       gradientTransform="matrix(0,-1,1,0,68,556)" />
    <linearGradient
       inkscape:collect="always"
       xlink:href="#outerBackgroundGradient-2"
       id="linearGradient4264"
       x1="293"
       y1="76"
       x2="379"
       y2="76"
       gradientUnits="userSpaceOnUse"
       gradientTransform="matrix(0,-1,1,0,260,412)" />
    <linearGradient
       inkscape:collect="always"
       xlink:href="#outerBackgroundGradient-2"
       id="linearGradient4266"
       x1="291"
       y1="172"
       x2="349"
       y2="172"
       gradientUnits="userSpaceOnUse"
       gradientTransform="matrix(0,-1,1,0,148,492)" />
    <linearGradient
       inkscape:collect="always"
       xlink:href="#outerBackgroundGradient-2"
       id="linearGradient3870"
       gradientUnits="userSpaceOnUse"
       gradientTransform="matrix(0,-1,1,0,316,540)"
       x1="418"
       y1="112"
       x2="438"
       y2="112" />
    <linearGradient
       inkscape:collect="always"
       xlink:href="#outerBackgroundGradient-2"
       id="linearGradient4312"
       gradientUnits="userSpaceOnUse"
       gradientTransform="matrix(0,-1,1,0,-12,300)"
       x1="35"
       y1="156"
       x2="253"
       y2="156" />
    <linearGradient
       id="outerBackgroundGradient-2">
      <stop
         style="stop-color:#1a70b8;stop-opacity:1;"
         offset="0"
         id="stop3864-8-6-3" />
      <stop
         style="stop-color:#177fd9;stop-opacity:1;"
         offset="1"
         id="stop3866-9-1-2" />
    </linearGradient>
  </defs>
  <metadata
     id="metadata4">
    <rdf:RDF>
      <cc:Work
         rdf:about="">
        <dc:format>image/svg+xml</dc:format>
        <dc:type
           rdf:resource="http://purl.org/dc/dcmitype/StillImage" />
        <dc:creator>
          <cc:Agent>
            <dc:title>Sam Hewitt</dc:title>
          </cc:Agent>
        </dc:creator>
        <dc:source />
        <cc:license
           rdf:resource="" />
        <dc:title />
        <dc:subject>
          <rdf:Bag />
        </dc:subject>
        <dc:date />
        <dc:rights>
          <cc:Agent>
            <dc:title />
          </cc:Agent>
        </dc:rights>
        <dc:publisher>
          <cc:Agent>
            <dc:title />
          </cc:Agent>
        </dc:publisher>
        <dc:identifier />
        <dc:relation />
        <dc:language />
        <dc:coverage />
        <dc:description />
        <dc:contributor>
          <cc:Agent>
            <dc:title />
          </cc:Agent>
        </dc:contributor>
      </cc:Work>
      <cc:Work
         rdf:about="">
        <dc:format>image/svg+xml</dc:format>
        <dc:type
           rdf:resource="http://purl.org/dc/dcmitype/StillImage" />
      </cc:Work>
    </rdf:RDF>
  </metadata>
  <g
     style="display:inline"
     inkscape:groupmode="layer"
     inkscape:label="Icon"
     id="layer1">
    <g
       style="display:none"
       inkscape:label="Baseplate"
       id="layer7"
       inkscape:groupmode="layer">
      <text
         y="19.745117"
         xml:space="preserve"
         x="15.006836"
         style="font-style:normal;font-variant:normal;font-weight:normal;font-stretch:normal;line-height:0%;font-family:'DejaVu Sans';-inkscape-font-specification:'DejaVu Sans';display:inline;fill:#000000;fill-opacity:1;stroke:none;enable-background:new"
         inkscape:label="context"
         id="context"><tspan
           style="font-style:normal;font-variant:normal;font-weight:normal;font-stretch:normal;font-size:18px;line-height:1.25;font-family:'DejaVu Sans';-inkscape-font-specification:'DejaVu Sans'"
           y="19.745117"
           x="15.006836"
           sodipodi:role="line"
           id="tspan3933">apps</tspan></text>
      <text
         y="19.745117"
         xml:space="preserve"
         x="122.48828"
         style="font-style:normal;font-variant:normal;font-weight:bold;font-stretch:normal;line-height:0%;font-family:'DejaVu Sans';-inkscape-font-specification:'DejaVu Sans Bold';text-align:start;writing-mode:lr-tb;text-anchor:start;display:inline;fill:#000000;fill-opacity:1;stroke:none;enable-background:new"
         inkscape:label="icon-name"
         id="icon-name"><tspan
           style="font-style:normal;font-variant:normal;font-weight:bold;font-stretch:normal;font-size:18px;line-height:1.25;font-family:'DejaVu Sans';-inkscape-font-specification:'DejaVu Sans Bold'"
           y="19.745117"
           x="122.48828"
           sodipodi:role="line"
           id="tspan3937">mscore</tspan></text>
      <rect
         style="display:inline;overflow:visible;visibility:visible;fill:#eeeeec;fill-opacity:1;fill-rule:nonzero;stroke:none;stroke-width:2;marker:none;enable-background:accumulate"
         id="rect16x16"
         width="16"
         height="16"
         x="416"
         y="140"
         inkscape:label="16x16" />
      <rect
         style="display:inline;overflow:visible;visibility:visible;fill:#d4d4d4;fill-opacity:1;fill-rule:nonzero;stroke:none;stroke-width:2;marker:none;enable-background:accumulate"
         id="rect24x24"
         width="24"
         height="24"
         x="416"
         y="100"
         inkscape:label="24x24" />
      <rect
         style="display:inline;overflow:visible;visibility:visible;fill:#eeeeec;fill-opacity:1;fill-rule:nonzero;stroke:none;stroke-width:2;marker:none;enable-background:accumulate"
         id="rect32x32"
         width="32"
         height="32"
         x="416"
         y="52"
         inkscape:label="32x32" />
      <rect
         inkscape:label="22x22"
         y="101"
         x="417"
         height="22"
         width="22"
         id="rect22x22"
         style="display:inline;overflow:visible;visibility:visible;fill:#eeeeec;fill-opacity:1;fill-rule:nonzero;stroke:none;stroke-width:2;marker:none;enable-background:accumulate" />
      <rect
         inkscape:label="48x48"
         y="220"
         x="288"
         height="48"
         width="48"
         id="rect48x48"
         style="display:inline;overflow:visible;visibility:visible;fill:#eeeeec;fill-opacity:1;fill-rule:nonzero;stroke:none;stroke-width:2;marker:none;enable-background:accumulate" />
      <rect
         style="display:inline;overflow:visible;visibility:visible;fill:#eeeeec;fill-opacity:1;fill-rule:nonzero;stroke:none;stroke-width:2;marker:none;enable-background:accumulate"
         id="rect256x256"
         width="256"
         height="256"
         x="16"
         y="28"
         inkscape:label="256x256" />
      <rect
         style="display:inline;overflow:visible;visibility:visible;fill:#eeeeec;fill-opacity:1;fill-rule:nonzero;stroke:none;stroke-width:2;marker:none;enable-background:accumulate"
         id="rect64x64"
         width="64"
         height="64"
         x="288"
         y="140"
         inkscape:label="64x64" />
      <rect
         style="display:inline;overflow:visible;visibility:visible;fill:#eeeeec;fill-opacity:1;fill-rule:nonzero;stroke:none;stroke-width:2;marker:none;enable-background:accumulate"
         id="rect96x96"
         width="96"
         height="96"
         x="288"
         y="28"
         inkscape:label="96x96" />
    </g>
    <g
       inkscape:groupmode="layer"
       id="layer4"
       inkscape:label="Shadow"
       style="display:inline"
       sodipodi:insensitive="true">
      <rect
         ry="50"
         y="47"
         x="34"
         height="220"
         width="220"
         id="rect4114"
         style="color:#bebebe;display:inline;overflow:visible;visibility:visible;opacity:0.1;fill:#000000;fill-opacity:1;fill-rule:nonzero;stroke:none;stroke-width:0;marker:none;enable-background:accumulate" />
      <rect
         style="color:#bebebe;display:inline;overflow:visible;visibility:visible;opacity:0.1;fill:#000000;fill-opacity:1;fill-rule:nonzero;stroke:none;stroke-width:0;marker:none;enable-background:accumulate"
         id="rect4120"
         width="30"
         height="30"
         x="417"
         y="54"
         ry="7" />
      <rect
         transform="scale(1,-1)"
         ry="9"
         y="-266"
         x="291"
         height="42"
         width="42"
         id="rect4122"
         style="color:#bebebe;display:inline;overflow:visible;visibility:visible;opacity:0.1;fill:#000000;fill-opacity:1;fill-rule:nonzero;stroke:none;stroke-width:0;marker:none;enable-background:accumulate" />
      <rect
         style="color:#bebebe;display:inline;overflow:visible;visibility:visible;opacity:0.1;fill:#000000;fill-opacity:1;fill-rule:nonzero;stroke:none;stroke-width:0;marker:none;enable-background:accumulate"
         id="rect4124"
         width="88"
         height="88"
         x="292"
         y="33"
         ry="18" />
      <rect
         ry="12.5"
         y="143"
         x="290"
         height="60"
         width="60"
         id="rect4126"
         style="color:#bebebe;display:inline;overflow:visible;visibility:visible;opacity:0.1;fill:#000000;fill-opacity:1;fill-rule:nonzero;stroke:none;stroke-width:0;marker:none;enable-background:accumulate" />
      <path
         id="path4268"
         d="m 422,101 c -2.77,0 -5,2.23 -5,5 v 12 c 0,2.77 2.23,5 5,5 h 12 c 2.77,0 5,-2.23 5,-5 v -12 c 0,-2.77 -2.23,-5 -5,-5 z"
         style="color:#bebebe;display:inline;overflow:visible;visibility:visible;opacity:0.1;fill:#000000;fill-opacity:1;fill-rule:nonzero;stroke:none;stroke-width:0;marker:none;enable-background:accumulate"
         inkscape:connector-curvature="0"
         sodipodi:nodetypes="sssssssss" />
      <path
         id="path4270"
         d="m 419,140 c -1.662,0 -3,1.338 -3,3 v 10 c 0,1.662 1.338,3 3,3 h 10 c 1.662,0 3,-1.338 3,-3 v -10 c 0,-1.662 -1.338,-3 -3,-3 z"
         style="color:#bebebe;display:inline;overflow:visible;visibility:visible;opacity:0.1;fill:#000000;fill-opacity:1;fill-rule:nonzero;stroke:none;stroke-width:0;marker:none;enable-background:accumulate"
         inkscape:connector-curvature="0"
         sodipodi:nodetypes="sssssssss" />
    </g>
    <g
       inkscape:groupmode="layer"
       id="layer2"
       inkscape:label="Background"
       style="display:inline">
      <path
         style="color:#bebebe;display:inline;overflow:visible;visibility:visible;fill:url(#linearGradient4312);fill-opacity:1;fill-rule:nonzero;stroke:none;stroke-width:2;marker:none;enable-background:accumulate"
         d="M 84,46.5 C 56.568735,46.5 34.5,68.568732 34.5,96 v 120 c 0,27.43127 22.068735,49.5 49.5,49.5 h 120 c 27.43127,0 49.5,-22.06873 49.5,-49.5 V 96 C 253.5,68.568732 231.43127,46.5 204,46.5 Z"
         id="path4200" />
      <path
         style="color:#bebebe;display:inline;overflow:visible;visibility:visible;fill:url(#linearGradient4256);fill-opacity:1;fill-rule:nonzero;stroke:none;stroke-width:2;marker:none;enable-background:accumulate"
         d="m 419,140.5 c -1.3844,0 -2.5,1.1156 -2.5,2.5 v 10 c 0,1.3844 1.1156,2.5 2.5,2.5 h 10 c 1.3844,0 2.5,-1.1156 2.5,-2.5 v -10 c 0,-1.3844 -1.1156,-2.5 -2.5,-2.5 z"
         id="path4202" />
      <path
         style="color:#bebebe;display:inline;overflow:visible;visibility:visible;fill:url(#linearGradient3870);fill-opacity:1;fill-rule:nonzero;stroke:none;stroke-width:2;marker:none;enable-background:accumulate"
         d="m 422,101.5 c -2.49699,0 -4.5,2.00301 -4.5,4.5 v 12 c 0,2.49699 2.00301,4.5 4.5,4.5 h 12 c 2.49699,0 4.5,-2.00301 4.5,-4.5 v -12 c 0,-2.49699 -2.00301,-4.5 -4.5,-4.5 z"
         id="path4204" />
      <path
         style="color:#bebebe;display:inline;overflow:visible;visibility:visible;fill:url(#linearGradient4260);fill-opacity:1;fill-rule:nonzero;stroke:none;stroke-width:2;marker:none;enable-background:accumulate"
         d="m 424,53.5 c -3.60654,0 -6.5,2.893464 -6.5,6.5 v 16 c 0,3.606536 2.89346,6.5 6.5,6.5 h 16 c 3.60654,0 6.5,-2.893464 6.5,-6.5 V 60 c 0,-3.606536 -2.89346,-6.5 -6.5,-6.5 z"
         id="path4206" />
      <path
         style="color:#bebebe;display:inline;overflow:visible;visibility:visible;fill:url(#linearGradient4262);fill-opacity:1;fill-rule:nonzero;stroke:none;stroke-width:2;marker:none;enable-background:accumulate"
         d="m 300,223.5 c -4.71531,0 -8.5,3.78469 -8.5,8.5 v 24 c 0,4.71531 3.78469,8.5 8.5,8.5 h 24 c 4.71531,0 8.5,-3.78469 8.5,-8.5 v -24 c 0,-4.71531 -3.78469,-8.5 -8.5,-8.5 z"
         id="path4208" />
      <path
         style="color:#bebebe;display:inline;overflow:visible;visibility:visible;fill:url(#linearGradient4264);fill-opacity:1;fill-rule:nonzero;stroke:none;stroke-width:2;marker:none;enable-background:accumulate"
         d="m 310,32.5 c -9.70255,0 -17.5,7.797452 -17.5,17.5 v 52 c 0,9.70255 7.79745,17.5 17.5,17.5 h 52 c 9.70255,0 17.5,-7.79745 17.5,-17.5 V 50 c 0,-9.702548 -7.79745,-17.5 -17.5,-17.5 z"
         id="path4210" />
      <path
         style="color:#bebebe;display:inline;overflow:visible;visibility:visible;fill:url(#linearGradient4266);fill-opacity:1;fill-rule:nonzero;stroke:none;stroke-width:2;marker:none;enable-background:accumulate"
         d="m 302.5,142.5 c -6.65502,0 -12,5.34498 -12,12 v 35 c 0,6.65502 5.34498,12 12,12 h 35 c 6.65502,0 12,-5.34498 12,-12 v -35 c 0,-6.65502 -5.34498,-12 -12,-12 z"
         id="path4212" />
    </g>
    <g
       inkscape:groupmode="layer"
       id="layer6"
       inkscape:label="Symbols"
       style="display:inline">
      <path
         id="path3900"
         style="display:inline;opacity:0.2;fill:#000000;fill-opacity:1;stroke-width:0.999991;enable-background:new"
         d="m 185.75784,99.63 c -15.65271,0 -27.87304,12.34912 -27.87304,28.5561 0.002,6.94584 9.25781,6.94584 9.25781,0 0,-9.26113 6.8211,-19.29456 18.61523,-19.29457 11.79468,0 18.5918,10.03344 18.5918,19.29457 0,6.94584 9.2832,6.94584 9.2832,0 0,-16.20698 -12.22175,-28.5561 -27.875,-28.5561 z m 0.89258,22.70074 c -3.37681,0 -6.11133,2.73575 -6.11133,6.11316 0,3.37736 2.73452,6.11317 6.11133,6.11317 3.37738,0 6.11328,-2.73581 6.11328,-6.11317 0,-3.37741 -2.7359,-6.11317 -6.11328,-6.11316 z m -44.57031,18.20277 c -8.08042,0 -16.76087,4.76598 -21.16016,10.84941 -4.39917,-6.08343 -13.07179,-10.07793 -21.15234,-10.07793 -13.35171,0 -25.76758,8.20366 -25.76758,30.7123 v 37.73562 c 0,2.55754 2.07516,4.61709 4.63281,4.61709 2.55923,0 4.63281,-2.0747 4.63281,-4.61709 v -37.73562 c -0.005,-17.10608 8.25017,-21.46248 16.50196,-21.46248 8.25185,0 16.5039,6.86111 16.5039,18.43715 v 40.76095 c 0,2.55754 2.07512,4.61709 4.63282,4.61709 h 0.0195 0.0195 c 2.55765,0 4.63281,-2.05955 4.63281,-4.61709 v -40.76095 c 0,-11.57604 8.25223,-18.43715 16.50391,-18.43715 5.23872,0 16.50195,2.32826 16.50195,18.43715 l 0.3125,13.69114 c 0,25.29583 16.98037,31.6869 27.78516,31.6869 10.80535,0 26.99016,-7.46394 27.32031,-29.84513 v -35.81573 c 0,-6.16075 -9.29297,-6.16075 -9.29297,0 v 35.81573 c 0,16.97861 -12.62466,20.59531 -18.02734,20.59531 -5.40211,0 -18.52344,-2.54381 -18.52344,-22.43708 l -0.30859,-12.94115 c 0,-19.18693 -12.03911,-29.20844 -25.76758,-29.20844 z"
         sodipodi:nodetypes="scssssssssssccssssscsssscssssccscsssscccc" />
      <path
         id="path3902"
         style="display:inline;opacity:0.2;fill:#000000;fill-opacity:1;enable-background:new"
         d="m 353.89627,52.41211 c -6.70829,0 -11.94531,5.29231 -11.94531,12.23828 7.2e-4,2.97685 3.9668,2.97685 3.9668,0 0,-3.96912 2.92389,-8.26758 7.97851,-8.26758 5.05487,0 7.9668,4.29846 7.9668,8.26758 0,2.97685 3.97851,2.97685 3.97851,0 0,-6.94597 -5.23677,-12.23828 -11.94531,-12.23828 z m 0.38281,9.73047 c -1.44721,0 -2.61914,1.17165 -2.61914,2.61914 0,1.44747 1.17193,2.61914 2.61914,2.61914 1.44744,0 2.61914,-1.17167 2.61914,-2.61914 0,-1.44749 -1.1717,-2.61914 -2.61914,-2.61914 z m -19.10156,7.80078 c -3.46303,0 -7.1849,2.04121 -9.07031,4.64844 -1.88536,-2.60723 -5.60137,-4.31836 -9.06445,-4.31836 -5.72216,0 -11.04297,3.51537 -11.04297,13.16211 v 16.17383 c 0,1.09611 0.88823,1.97851 1.98437,1.97851 1.0968,0 1.98633,-0.8889 1.98633,-1.97851 V 83.43555 c -0.002,-7.33131 3.53579,-9.19727 7.07227,-9.19727 3.5365,0 7.07421,2.93914 7.07421,7.90039 v 17.47071 c 0,1.09611 0.88822,1.97851 1.98438,1.97851 h 0.008 0.01 c 1.09614,0 1.98437,-0.8824 1.98437,-1.97851 V 82.13867 c 0,-4.96125 3.53779,-7.90039 7.07422,-7.90039 2.24517,0 7.07227,0.99646 7.07227,7.90039 l 0.13281,5.86719 c 0,10.84128 7.27758,13.58203 11.9082,13.58203 4.63085,0 11.56749,-3.19889 11.70899,-12.79101 V 73.44727 c 0,-2.64037 -3.98243,-2.64037 -3.98243,0 v 15.34961 c 0,7.27668 -5.41113,8.82617 -7.72656,8.82617 -2.31519,0 -7.9375,-1.09134 -7.9375,-9.61719 l -0.13281,-5.54492 c 0,-8.22312 -5.15934,-12.51758 -11.04297,-12.51758 z"
         sodipodi:nodetypes="scssssssssssscssssscsssscssssccscssssccss" />
      <path
         id="path3904"
         style="display:inline;opacity:0.2;fill:#000000;fill-opacity:1;enable-background:new"
         d="m 331.92956,156.608 c -4.4722,0 -7.96289,3.52755 -7.96289,8.1582 4.8e-4,1.98457 2.64453,1.98457 2.64453,0 0,-2.64608 1.94861,-5.51172 5.31836,-5.51172 3.36991,0 5.3125,2.86564 5.3125,5.51172 0,1.98457 2.65235,1.98457 2.65235,0 0,-4.63065 -3.49249,-8.1582 -7.96485,-8.1582 z m 0.25586,6.48632 c -0.96481,0 -1.74609,0.78111 -1.74609,1.7461 0,0.96498 0.78128,1.74609 1.74609,1.74609 0.96496,0 1.7461,-0.78111 1.7461,-1.74609 0,-0.96499 -0.78114,-1.74609 -1.7461,-1.7461 z m -12.73437,5.20118 c -2.30869,0 -4.78798,1.36146 -6.04492,3.09961 -1.25691,-1.73815 -3.73621,-2.87891 -6.04493,-2.87891 -3.81477,0 -7.36132,2.34228 -7.36132,8.77344 v 10.78125 c 0,0.73074 0.59345,1.32031 1.32421,1.32031 0.7312,0 1.32227,-0.5939 1.32227,-1.32031 v -10.78125 c -0.001,-4.88754 2.35718,-6.13086 4.71484,-6.13086 2.35767,0 4.7168,1.96007 4.7168,5.26758 v 11.64453 c 0,0.73074 0.5915,1.32031 1.32227,1.32031 h 0.006 0.006 c 0.73076,0 1.32422,-0.58957 1.32422,-1.32031 v -11.64453 c 0,-3.30751 2.35723,-5.26758 4.71485,-5.26758 1.49678,0 4.71484,0.66495 4.71484,5.26758 l 0.0899,3.91015 c 0,7.22751 4.85041,9.05469 7.9375,9.05469 3.08724,0 7.71231,-2.1326 7.80664,-8.52734 v -10.23243 c 0,-1.76025 -2.6543,-1.76025 -2.6543,0 v 10.23243 c 0,4.85112 -3.60872,5.88476 -5.15234,5.88476 -1.54346,1e-5 -5.29102,-0.72822 -5.29102,-6.41211 l -0.0879,-3.69726 c 0,-5.48208 -3.44086,-8.34375 -7.36328,-8.34375 z"
         sodipodi:nodetypes="scssssssssssscssssscsssscssssccscssssccss" />
      <path
         id="path3906"
         style="display:inline;opacity:0.2;fill:#000000;fill-opacity:1;enable-background:new"
         d="m 320.35149,233.526 c -3.13054,0 -5.57422,2.46947 -5.57422,5.71093 3.4e-4,1.38919 1.85156,1.38919 1.85156,0 0,-1.85226 1.36384,-3.85937 3.72266,-3.85937 2.35894,0 3.71874,2.00711 3.71874,3.85937 0,1.38919 1.85547,1.38919 1.85547,0 0,-3.24146 -2.44357,-5.71093 -5.57421,-5.71093 z m 0.17773,4.53906 c -0.67537,0 -1.22266,0.54716 -1.22266,1.22266 0,0.67548 0.54729,1.22266 1.22266,1.22266 0.67547,0 1.22266,-0.54718 1.22266,-1.22266 0,-0.6755 -0.54721,-1.22266 -1.22266,-1.22266 z m -8.91406,3.64062 c -1.61608,0 -3.35256,0.95322 -4.23243,2.16992 -0.87983,-1.2167 -2.61241,-2.01562 -4.22851,-2.01562 -2.67035,0 -5.1543,1.64076 -5.1543,6.14257 v 7.54688 c 0,0.51152 0.41425,0.92383 0.92578,0.92383 0.51184,0 0.92774,-0.41535 0.92774,-0.92383 v -7.54688 c -9.5e-4,-3.42128 1.65042,-4.29296 3.30078,-4.29296 1.65037,0 3.29883,1.37226 3.29883,3.6875 v 8.15234 c 0,0.51151 0.41618,0.92383 0.92773,0.92383 h 0.004 0.004 c 0.51153,0 0.92579,-0.41231 0.92579,-0.92383 v -8.15234 c 0,-2.31524 1.65046,-3.6875 3.30078,-3.6875 1.04776,0 3.30078,0.46567 3.30078,3.6875 l 0.0625,2.73828 c 0,5.05927 3.39569,6.33789 5.55664,6.33789 2.16107,0 5.39882,-1.49243 5.46484,-5.96875 v -7.16406 c 0,-1.23217 -1.85938,-1.23217 -1.85938,0 v 7.16406 c 0,3.39578 -2.52494,4.11914 -3.60547,4.11914 -1.08042,0 -3.70313,-0.50954 -3.70313,-4.48828 l -0.0625,-2.58789 c 0,-3.83745 -2.40859,-5.8418 -5.15429,-5.8418 z"
         sodipodi:nodetypes="scssssssssssscssssscsssscssssccscssssccss" />
      <path
         id="path3908"
         style="color:#000000;font-style:normal;font-variant:normal;font-weight:normal;font-stretch:normal;font-size:medium;line-height:normal;font-family:Sans;-inkscape-font-specification:Sans;text-indent:0;text-align:start;text-decoration:none;text-decoration-line:none;letter-spacing:normal;word-spacing:normal;text-transform:none;writing-mode:lr-tb;direction:ltr;baseline-shift:baseline;text-anchor:start;display:inline;overflow:visible;visibility:visible;opacity:0.2;fill:#000000;fill-opacity:1;fill-rule:nonzero;stroke:none;stroke-width:0.540503;marker:none;enable-background:accumulate"
         d="m 437.96496,60.804 c -2.23614,0 -3.98235,1.765899 -3.98235,4.08086 2.3e-4,0.992127 1.32182,0.992127 1.32182,0 0,-1.322834 0.97562,-2.755055 2.66053,-2.755055 1.68498,0 2.65629,1.432221 2.65629,2.755055 0,0.992127 1.32604,0.992127 1.32604,0 0,-2.314961 -1.74611,-4.08086 -3.98233,-4.08086 z m 0.12669,3.242732 c -0.48241,0 -0.87207,0.391597 -0.87207,0.874018 0,0.482414 0.38966,0.874017 0.87207,0.874017 0.48248,0 0.87417,-0.391604 0.87417,-0.874017 0,-0.482421 -0.39169,-0.874018 -0.87417,-0.874018 z m -6.36627,2.600943 c -1.15436,0 -2.39521,0.680646 -3.0237,1.549586 -0.62846,-0.868939 -1.8672,-1.437696 -3.02158,-1.437696 -1.90742,0 -3.6804,1.171903 -3.6804,4.386979 v 5.389776 c 0,0.365312 0.29553,0.65868 0.66091,0.65868 0.36561,0 0.66301,-0.295533 0.66301,-0.65868 v -5.389776 c -6.6e-4,-2.443386 1.17762,-3.067508 2.35648,-3.067506 1.17885,0 2.35857,0.981227 2.35857,2.63472 v 5.822562 c 0,0.365312 0.29551,0.65868 0.6609,0.65868 h 0.002 0.004 c 0.36538,0 0.66091,-0.293368 0.66091,-0.65868 v -5.822562 c 0,-1.653493 1.17974,-2.634722 2.35858,-2.63472 0.74839,0 2.35646,0.33377 2.35646,2.63472 l 0.0443,1.954928 c 0,3.613189 2.42609,4.526314 3.96966,4.526314 1.54365,0 3.85704,-1.06766 3.90421,-4.264531 v -5.115326 c 0,-0.879983 -1.32815,-0.879983 -1.32815,0 v 5.115326 c 0,2.425181 -1.80423,2.940838 -2.57606,2.940838 -0.77175,0 -2.64574,-0.361121 -2.64574,-3.202621 l -0.0443,-1.84937 c 0,-2.740609 -1.71916,-4.171641 -3.68039,-4.171641 z"
         sodipodi:nodetypes="scssssssssssscssssscsssscssssccscssssccss" />
      <path
         id="path3910"
         style="color:#000000;font-style:normal;font-variant:normal;font-weight:normal;font-stretch:normal;font-size:medium;line-height:normal;font-family:Sans;-inkscape-font-specification:Sans;text-indent:0;text-align:start;text-decoration:none;text-decoration-line:none;letter-spacing:normal;word-spacing:normal;text-transform:none;writing-mode:lr-tb;direction:ltr;baseline-shift:baseline;text-anchor:start;display:inline;overflow:visible;visibility:visible;opacity:0.2;fill:#000000;fill-opacity:1;fill-rule:nonzero;stroke:none;stroke-width:0.5;marker:none;enable-background:accumulate"
         d="m 432.17568,107.263 c -1.56527,0 -2.78711,1.23476 -2.78711,2.85547 1.8e-4,0.6946 0.92578,0.6946 0.92578,0 0,-0.92612 0.68192,-1.92968 1.86133,-1.92968 1.17947,0 1.85938,1.00356 1.85938,1.92968 0,0.6946 0.92773,0.6946 0.92773,0 0,-1.62072 -1.22178,-2.85547 -2.78711,-2.85547 z m 0.0899,2.26955 c -0.33769,0 -0.61133,0.27357 -0.61133,0.61132 0,0.33775 0.27364,0.61133 0.61133,0.61133 0.33773,0 0.61132,-0.27358 0.61132,-0.61133 0,-0.33774 -0.27359,-0.61132 -0.61132,-0.61132 z m -4.45704,1.82031 c -0.80804,0 -1.67726,0.47759 -2.11718,1.08594 -0.43992,-0.60837 -1.30718,-1.00782 -2.11524,-1.00782 -1.33517,0 -2.57617,0.81942 -2.57617,3.07032 v 3.77343 c 0,0.25575 0.20713,0.46289 0.46289,0.46289 0.25592,-1e-5 0.46289,-0.20864 0.46289,-0.46289 v -3.77343 c -4.6e-4,-1.71063 0.82521,-2.14649 1.65039,-2.14649 0.82519,0 1.65039,0.68613 1.65039,1.84375 v 4.07617 c 0,0.25575 0.20711,0.46289 0.46289,0.46289 h 0.002 0.004 c 0.25577,-1e-5 0.46289,-0.20713 0.46289,-0.46289 v -4.07617 c 0,-1.15762 0.82523,-1.84375 1.65039,-1.84375 0.52389,0 1.6504,0.23283 1.6504,1.84375 l 0.0312,1.36914 c 0,2.52963 1.69686,3.16992 2.77734,3.16992 1.08053,-1e-5 2.6994,-0.74621 2.73242,-2.98437 v -3.58203 c 0,-0.61609 -0.92969,-0.61609 -0.92969,0 v 3.58203 c 0,1.69789 -1.26246,2.05859 -1.80273,2.05859 -0.54021,0 -1.85156,-0.25477 -1.85156,-2.24414 l -0.0312,-1.29297 c 0,-1.91872 -1.20332,-2.92187 -2.57618,-2.92187 z"
         sodipodi:nodetypes="scssssssssssscssssscsssscssssccscssssccss" />
      <path
         id="path3912"
         style="color:#000000;font-style:normal;font-variant:normal;font-weight:normal;font-stretch:normal;font-size:medium;line-height:normal;font-family:Sans;-inkscape-font-specification:Sans;text-indent:0;text-align:start;text-decoration:none;text-decoration-line:none;letter-spacing:normal;word-spacing:normal;text-transform:none;writing-mode:lr-tb;direction:ltr;baseline-shift:baseline;text-anchor:start;display:inline;overflow:visible;visibility:visible;opacity:0.2;fill:#000000;fill-opacity:1;fill-rule:nonzero;stroke:none;stroke-width:0.416677;marker:none;enable-background:accumulate"
         d="m 426.98277,144.903 c -1.11796,0 -1.99204,0.88022 -1.99204,2.03803 1.2e-4,0.4962 0.6624,0.4962 0.6624,0 0,-0.66161 0.48726,-1.37877 1.32964,-1.37877 0.84241,0 1.32803,0.71716 1.32803,1.37877 0,0.4962 0.66238,0.4962 0.66238,0 0,-1.15781 -0.8724,-2.03803 -1.99041,-2.03803 z m 0.0635,1.61967 c -0.24118,0 -0.43617,0.19659 -0.43617,0.43787 0,0.24128 0.19499,0.43789 0.43617,0.43789 0.24122,0 0.43617,-0.19661 0.43617,-0.43789 0,-0.24128 -0.19495,-0.43787 -0.43617,-0.43787 z m -3.18336,1.30224 c -0.57712,0 -1.19772,0.33863 -1.51193,0.77321 -0.31421,-0.43458 -0.93317,-0.71948 -1.5103,-0.71948 -0.95363,0 -1.84068,0.5863 -1.84068,2.19428 v 2.69564 c 0,0.18271 0.1477,0.32883 0.33038,0.32883 0.18278,0 0.332,-0.14721 0.332,-0.32883 v -2.69564 c -3.3e-4,-1.22204 0.58892,-1.5334 1.1783,-1.5334 0.58937,0 1.17831,0.48992 1.17831,1.31689 v 2.91215 c 0,0.18271 0.14769,0.32883 0.33036,0.32883 h 0.002 0.002 c 0.18268,0 0.33201,-0.14612 0.33201,-0.32883 v -2.91215 c 0,-0.82697 0.58893,-1.31689 1.17829,-1.31689 0.37417,0 1.1783,0.16609 1.1783,1.31689 l 0.0228,0.97995 c 0,1.8071 1.21218,2.26103 1.9839,2.26103 0.77175,0 1.92777,-0.53193 1.95135,-2.1308 v -2.55729 c 0,-0.44012 -0.66401,-0.44012 -0.66401,0 v 2.55729 c 0,1.21293 -0.90147,1.46991 -1.28734,1.46991 -0.38583,0 -1.32315,-0.17898 -1.32315,-1.60014 l -0.0212,-0.92622 c 0,-1.37069 -0.86015,-2.08523 -1.84068,-2.08523 z"
         sodipodi:nodetypes="scssssssssssscssssscsssscssssccscssssccss" />
      <path
         id="path6"
         style="display:inline;fill:#ffffff;fill-opacity:1;stroke-width:1;enable-background:new"
         d="m 185.75787,98.62986 c -15.65271,0 -27.87306,12.34937 -27.87306,28.55666 0.002,6.94597 9.25781,6.94597 9.25781,0 0,-9.2613 6.82112,-19.29492 18.61525,-19.29492 11.79468,0 18.59179,10.03362 18.59179,19.29492 0,6.94597 9.28322,6.94597 9.28322,0 0,-16.20729 -12.22176,-28.556659 -27.87501,-28.55666 z m 0.89257,22.70119 c -3.37681,0 -6.11132,2.7358 -6.11132,6.11328 0,3.37742 2.73451,6.11328 6.11132,6.11328 3.37738,0 6.11329,-2.73586 6.11329,-6.11328 0,-3.37748 -2.73591,-6.11329 -6.11329,-6.11328 z m -44.57033,18.20311 c -8.08042,0 -16.76087,4.76414 -21.16016,10.84768 -4.39917,-6.08354 -13.07181,-10.07618 -21.152362,-10.07618 -13.351711,0 -25.767586,8.20188 -25.767586,30.71095 v 37.73634 c 0,2.55759 2.075161,4.61719 4.632813,4.61719 2.559221,0 4.632811,-2.07475 4.632811,-4.61719 v -37.73634 c -0.0049,-17.10641 8.250174,-21.46095 16.501962,-21.46095 8.251852,0 16.503922,6.8593 16.503922,18.43556 v 40.76173 c 0,2.55759 2.07511,4.61719 4.63281,4.61719 h 0.0195 0.0195 c 2.55765,0 4.63283,-2.0596 4.63283,-4.61719 v -40.76173 c 0,-11.57626 8.25222,-18.43556 16.5039,-18.43556 5.23872,0 16.50196,2.32636 16.50196,18.43556 l 0.31249,13.69141 c 0,25.29631 16.98038,31.68751 27.78517,31.68751 10.80535,0 26.99018,-7.4641 27.32033,-29.84572 v -35.81446 c 0,-6.16086 -9.29298,-6.16086 -9.29298,0 v 35.81446 c 0,16.97894 -12.62467,20.59571 -18.02735,20.59571 -5.40211,0 -18.52344,-2.54385 -18.52344,-22.4375 l -0.30859,-12.94141 c 0,-19.18729 -12.03912,-29.20706 -25.76759,-29.20706 z"
         sodipodi:nodetypes="scssssssssssccssssscsssscssssccscsssscccc" />
      <path
         id="path3875"
         style="display:inline;fill:#ffffff;fill-opacity:1;enable-background:new"
         d="m 353.89627,51.412109 c -6.70829,0 -11.94531,5.292306 -11.94531,12.238282 7.2e-4,2.976851 3.9668,2.976851 3.9668,0 0,-3.969126 2.92389,-8.267579 7.97851,-8.267579 5.05487,0 7.9668,4.298454 7.9668,8.267579 0,2.976851 3.97852,2.976851 3.97852,0 0,-6.945976 -5.23678,-12.238282 -11.94532,-12.238282 z m 0.38282,9.730469 c -1.44721,0 -2.61914,1.171648 -2.61914,2.619141 0,1.447468 1.17193,2.61914 2.61914,2.61914 1.44744,0 2.61914,-1.171672 2.61914,-2.61914 0,-1.447493 -1.1717,-2.619141 -2.61914,-2.619141 z m -19.10157,7.800781 c -3.46303,0 -7.1849,2.041211 -9.07031,4.648438 -1.88536,-2.607228 -5.60137,-4.318359 -9.06445,-4.318359 -5.72216,0 -11.04297,3.515367 -11.04297,13.162109 v 16.173828 c 0,1.096111 0.88824,1.978515 1.98438,1.978515 1.0968,0 1.98632,-0.888901 1.98632,-1.978515 V 82.435547 c -0.002,-7.331311 3.53579,-9.197266 7.07227,-9.197266 3.5365,0 7.07422,2.939134 7.07422,7.900391 v 17.470703 c 0,1.096111 0.88821,1.978515 1.98437,1.978515 h 0.008 0.01 c 1.09614,0 1.98438,-0.882403 1.98438,-1.978515 V 81.138672 c 0,-4.961257 3.53778,-7.900391 7.07421,-7.900391 2.24517,0 7.07227,0.996455 7.07227,7.900391 l 0.13281,5.867187 c 0,10.841274 7.27759,13.582031 11.90821,13.582031 4.63085,0 11.56748,-3.198898 11.70898,-12.791015 V 72.447266 c 0,-2.640365 -3.98242,-2.640365 -3.98242,0 v 15.349609 c 0,7.276687 -5.41113,8.826172 -7.72656,8.826172 -2.31519,0 -7.9375,-1.091344 -7.9375,-9.617188 l -0.13282,-5.544921 c 0,-8.223122 -5.15934,-12.517579 -11.04297,-12.517579 z"
         sodipodi:nodetypes="scssssssssssscssssscsssscssssccscssssccss" />
      <path
         id="path3877"
         style="display:inline;fill:#ffffff;fill-opacity:1;enable-background:new"
         d="m 331.92957,155.6084 c -4.4722,0 -7.96289,3.52755 -7.96289,8.1582 4.8e-4,1.98457 2.64453,1.98457 2.64453,0 0,-2.64608 1.94861,-5.51172 5.31836,-5.51172 3.36991,0 5.3125,2.86564 5.3125,5.51172 0,1.98457 2.65234,1.98457 2.65234,0 0,-4.63065 -3.49248,-8.1582 -7.96484,-8.1582 z m 0.25586,6.48633 c -0.96481,0 -1.7461,0.7811 -1.7461,1.74609 0,0.96498 0.78129,1.7461 1.7461,1.7461 0.96496,0 1.74609,-0.78112 1.74609,-1.7461 0,-0.96499 -0.78113,-1.74609 -1.74609,-1.74609 z m -12.73438,5.20117 c -2.30869,0 -4.78798,1.36146 -6.04492,3.09961 -1.25691,-1.73815 -3.7362,-2.87891 -6.04492,-2.87891 -3.81477,0 -7.36133,2.34228 -7.36133,8.77344 v 10.78125 c 0,0.73074 0.59346,1.32031 1.32422,1.32031 0.7312,0 1.32226,-0.5939 1.32226,-1.32031 v -10.78125 c -0.001,-4.88754 2.35719,-6.13086 4.71485,-6.13086 2.35767,0 4.71679,1.96007 4.71679,5.26758 v 11.64453 c 0,0.73074 0.5915,1.32031 1.32227,1.32031 h 0.006 0.006 c 0.73076,0 1.32422,-0.58957 1.32422,-1.32031 v -11.64453 c 0,-3.30751 2.35722,-5.26758 4.71484,-5.26758 1.49678,0 4.71485,0.66495 4.71485,5.26758 l 0.0898,3.91016 c 0,7.22751 4.85042,9.05468 7.9375,9.05468 3.08724,0 7.71231,-2.1326 7.80664,-8.52734 v -10.23242 c 0,-1.76025 -2.6543,-1.76025 -2.6543,0 v 10.23242 c 0,4.85112 -3.60872,5.88476 -5.15234,5.88476 -1.54346,1e-5 -5.29102,-0.72821 -5.29102,-6.4121 l -0.0879,-3.69727 c 0,-5.48208 -3.44086,-8.34375 -7.36328,-8.34375 z"
         sodipodi:nodetypes="scssssssssssscssssscsssscssssccscssssccss" />
      <path
         id="path3879"
         style="display:inline;fill:#ffffff;fill-opacity:1;enable-background:new"
         d="m 320.35147,232.52636 c -3.13054,0 -5.57423,2.46948 -5.57423,5.71094 3.4e-4,1.38919 1.85157,1.38919 1.85157,0 0,-1.85226 1.36383,-3.85938 3.72265,-3.85938 2.35894,0 3.71875,2.00712 3.71875,3.85938 0,1.38919 1.85547,1.38919 1.85547,0 0,-3.24146 -2.44357,-5.71094 -5.57421,-5.71094 z m 0.17775,4.53906 c -0.67537,0 -1.22267,0.54716 -1.22267,1.22266 0,0.67548 0.5473,1.22265 1.22267,1.22265 0.67547,0 1.22264,-0.54717 1.22264,-1.22265 0,-0.6755 -0.54719,-1.22266 -1.22264,-1.22266 z m -8.91407,3.64063 c -1.61608,0 -3.35256,0.95321 -4.23242,2.16992 -0.87983,-1.21671 -2.61241,-2.01563 -4.22851,-2.01563 -2.67035,0 -5.1543,1.64077 -5.1543,6.14258 v 7.54688 c 0,0.51152 0.41425,0.92383 0.92578,0.92383 0.51184,0 0.92773,-0.41535 0.92773,-0.92383 v -7.54688 c -9.5e-4,-3.42128 1.65041,-4.29297 3.30077,-4.29297 1.65037,0 3.29883,1.37226 3.29883,3.6875 v 8.15236 c 0,0.51151 0.41619,0.92383 0.92773,0.92383 h 0.004 0.004 c 0.51153,0 0.92577,-0.41231 0.92577,-0.92383 v -8.15236 c 0,-2.31524 1.65045,-3.6875 3.30077,-3.6875 1.04776,0 3.3008,0.46567 3.3008,3.6875 l 0.0625,2.73828 c 0,5.05927 3.39569,6.3379 5.55664,6.3379 2.16107,0 5.39882,-1.49243 5.46484,-5.96875 v -7.16407 c 0,-1.23217 -1.85938,-1.23217 -1.85938,0 v 7.16407 c 0,3.39578 -2.52494,4.11914 -3.60547,4.11914 -1.08042,0 -3.70313,-0.50956 -3.70313,-4.48829 l -0.0625,-2.58789 c 0,-3.83745 -2.4086,-5.84179 -5.1543,-5.84179 z"
         sodipodi:nodetypes="scssssssssssscssssscsssscssssccscssssccss" />
      <path
         id="path3881"
         style="color:#000000;font-style:normal;font-variant:normal;font-weight:normal;font-stretch:normal;font-size:medium;line-height:normal;font-family:Sans;-inkscape-font-specification:Sans;text-indent:0;text-align:start;text-decoration:none;text-decoration-line:none;letter-spacing:normal;word-spacing:normal;text-transform:none;writing-mode:lr-tb;direction:ltr;baseline-shift:baseline;text-anchor:start;display:inline;overflow:visible;visibility:visible;fill:#ffffff;fill-opacity:1;fill-rule:nonzero;stroke:none;stroke-width:0.540537;marker:none;enable-background:accumulate"
         d="m 437.9651,59.804318 c -2.23608,0 -3.98224,1.764056 -3.98224,4.079366 2.4e-4,0.992277 1.32178,0.992277 1.32178,0 0,-1.323034 0.97559,-2.755472 2.66046,-2.755472 1.68494,0 2.65623,1.432438 2.65623,2.755472 0,0.992277 1.326,0.992277 1.326,0 0,-2.31531 -1.74606,-4.079366 -3.98223,-4.079366 z m 0.12669,3.243222 c -0.4824,0 -0.87204,0.391656 -0.87204,0.87415 0,0.482487 0.38964,0.872039 0.87204,0.872039 0.48247,0 0.87414,-0.389552 0.87414,-0.872039 0,-0.482494 -0.39167,-0.87415 -0.87414,-0.87415 z m -6.36609,2.601335 c -1.15434,0 -2.39516,0.68075 -3.02363,1.549821 -0.62845,-0.869071 -1.86717,-1.440024 -3.02152,-1.440024 -1.90737,0 -3.6803,1.17208 -3.6803,4.387641 v 5.390589 c 0,0.365368 0.29552,0.65878 0.66089,0.65878 0.3656,0 0.663,-0.295578 0.663,-0.65878 v -5.390589 c -6.6e-4,-2.443755 1.17759,-3.065859 2.35641,-3.065859 1.17883,0 2.35851,0.979265 2.35851,2.633006 v 5.823442 c 0,0.365368 0.29552,0.65878 0.6609,0.65878 h 0.002 0.004 c 0.36537,0 0.6609,-0.293412 0.6609,-0.65878 V 69.71346 c 0,-1.653741 1.17971,-2.633006 2.35851,-2.633006 0.74838,0 2.3564,0.331709 2.3564,2.633006 l 0.0443,1.955224 c 0,3.613735 2.42604,4.526998 3.96956,4.526998 1.54362,0 3.85695,-1.065712 3.90412,-4.263064 v -5.116099 c 0,-0.880115 -1.32811,-0.880115 -1.32811,0 v 5.116099 c 0,2.425546 -1.80419,2.941281 -2.57601,2.941281 -0.77172,0 -2.64566,-0.363285 -2.64566,-3.205215 l -0.0443,-1.847539 c 0,-2.741022 -1.7191,-4.17227 -3.68029,-4.17227 z"
         sodipodi:nodetypes="scssssssssssscssssscsssscssssccscssssccss" />
      <path
         id="path3889"
         style="color:#000000;font-style:normal;font-variant:normal;font-weight:normal;font-stretch:normal;font-size:medium;line-height:normal;font-family:Sans;-inkscape-font-specification:Sans;text-indent:0;text-align:start;text-decoration:none;text-decoration-line:none;letter-spacing:normal;word-spacing:normal;text-transform:none;writing-mode:lr-tb;direction:ltr;baseline-shift:baseline;text-anchor:start;display:inline;overflow:visible;visibility:visible;fill:#ffffff;fill-opacity:1;fill-rule:nonzero;stroke:none;stroke-width:0.5;marker:none;enable-background:accumulate"
         d="m 432.17568,106.26269 c -1.56527,0 -2.78711,1.23474 -2.78711,2.85546 1.8e-4,0.6946 0.92578,0.6946 0.92578,0 0,-0.92612 0.68192,-1.92968 1.86133,-1.92968 1.17947,0 1.85938,1.00356 1.85938,1.92968 0,0.6946 0.92773,0.6946 0.92773,0 0,-1.62072 -1.22178,-2.85546 -2.78711,-2.85546 z m 0.0899,2.26953 c -0.33769,0 -0.61133,0.27358 -0.61133,0.61133 0,0.33775 0.27364,0.61132 0.61133,0.61132 0.33773,0 0.61132,-0.27357 0.61132,-0.61132 0,-0.33774 -0.27359,-0.61133 -0.61132,-0.61133 z m -4.45704,1.82032 c -0.80804,0 -1.67726,0.47758 -2.11718,1.08593 -0.43992,-0.60836 -1.30718,-1.00781 -2.11524,-1.00781 -1.33517,0 -2.57617,0.81941 -2.57617,3.07031 v 3.77344 c 0,0.25575 0.20713,0.4629 0.46289,0.4629 0.25592,-10e-6 0.46289,-0.20865 0.46289,-0.4629 v -3.77344 c -4.6e-4,-1.71063 0.82521,-2.14649 1.65039,-2.14649 0.82519,0 1.65039,0.68614 1.65039,1.84375 v 4.07618 c 0,0.25575 0.20712,0.4629 0.4629,0.4629 h 0.002 0.004 c 0.25577,-10e-6 0.46289,-0.20714 0.46289,-0.4629 v -4.07618 c 0,-1.15761 0.82523,-1.84375 1.65039,-1.84375 0.52388,0 1.65039,0.23284 1.65039,1.84375 l 0.0312,1.36914 c 0,2.52963 1.69687,3.16993 2.77735,3.16993 1.08053,-1e-5 2.6994,-0.74622 2.73242,-2.98438 v -3.58203 c 0,-0.61609 -0.92969,-0.61609 -0.92969,0 v 3.58203 c 0,1.69789 -1.26246,2.05859 -1.80273,2.05859 -0.54021,0 -1.85156,-0.25477 -1.85156,-2.24414 l -0.0312,-1.29297 c 0,-1.91872 -1.20333,-2.92187 -2.57618,-2.92187 z"
         sodipodi:nodetypes="scssssssssssscssssscsssscssssccscssssccss" />
      <path
         id="path3891"
         style="color:#000000;font-style:normal;font-variant:normal;font-weight:normal;font-stretch:normal;font-size:medium;line-height:normal;font-family:Sans;-inkscape-font-specification:Sans;text-indent:0;text-align:start;text-decoration:none;text-decoration-line:none;letter-spacing:normal;word-spacing:normal;text-transform:none;writing-mode:lr-tb;direction:ltr;baseline-shift:baseline;text-anchor:start;display:inline;overflow:visible;visibility:visible;fill:#ffffff;fill-opacity:1;fill-rule:nonzero;stroke:none;stroke-width:0.416635;marker:none;enable-background:accumulate"
         d="m 426.98277,143.90281 c -1.11797,0 -1.99203,0.88165 -1.99203,2.03923 1.2e-4,0.49611 0.66238,0.49611 0.66238,0 0,-0.66147 0.48727,-1.37848 1.32965,-1.37848 0.84242,0 1.32802,0.71701 1.32802,1.37848 0,0.49611 0.66239,0.49611 0.66239,0 0,-1.15758 -0.8724,-2.03923 -1.99041,-2.03923 z m 0.0635,1.62097 c -0.24119,0 -0.43617,0.19493 -0.43617,0.43617 0,0.24122 0.19498,0.43779 0.43617,0.43779 0.24122,0 0.43617,-0.19657 0.43617,-0.43779 0,-0.24124 -0.19495,-0.43617 -0.43617,-0.43617 z m -3.18335,1.30036 c -0.57713,0 -1.19772,0.34017 -1.51193,0.77467 -0.31421,-0.4345 -0.93317,-0.71934 -1.51031,-0.71934 -0.95363,0 -1.84068,0.58618 -1.84068,2.19384 v 2.69512 c 0,0.18266 0.1477,0.32875 0.33038,0.32875 0.18279,0 0.33201,-0.14718 0.33201,-0.32875 v -2.69512 c -3.4e-4,-1.22179 0.58892,-1.53308 1.17829,-1.53308 0.58937,0 1.1783,0.48982 1.1783,1.31663 v 2.91157 c 0,0.18266 0.1477,0.32875 0.33038,0.32875 h 0.002 0.002 c 0.18267,0 0.332,-0.14609 0.332,-0.32875 v -2.91157 c 0,-0.82681 0.58894,-1.31663 1.1783,-1.31663 0.37416,0 1.17829,0.16606 1.17829,1.31663 l 0.0228,0.97812 c 0,1.80673 1.21219,2.2622 1.98389,2.2622 0.77177,0 1.92778,-0.53182 1.95136,-2.13038 v -2.55839 c 0,-0.44004 -0.66401,-0.44004 -0.66401,0 v 2.55839 c 0,1.21269 -0.90146,1.46962 -1.28735,1.46962 -0.38582,0 -1.32313,-0.18057 -1.32313,-1.60144 l -0.0212,-0.92442 c 0,-1.37041 -0.86015,-2.08642 -1.84068,-2.08642 z"
         sodipodi:nodetypes="scssssssssssscssssscsssscssssccscssssccss" />
    </g>
    <g
       inkscape:groupmode="layer"
       id="layer5"
       inkscape:label="Highlights"
       style="display:inline"
       sodipodi:insensitive="true">
      <path
         style="color:#bebebe;display:inline;overflow:visible;visibility:visible;opacity:0.13;fill:#ffffff;fill-opacity:1;fill-rule:nonzero;stroke:none;stroke-width:0;marker:none;enable-background:accumulate"
         d="M 84,47 C 56.836703,47 35,68.836703 35,96 v 1 C 35,69.836703 56.836703,48 84,48 h 120 c 27.1633,0 49,21.836703 49,49 V 96 C 253,68.836703 231.1633,47 204,47 Z"
         id="rect3894"
         inkscape:connector-curvature="0" />
      <path
         style="color:#bebebe;display:inline;overflow:visible;visibility:visible;opacity:0.13;fill:#ffffff;fill-opacity:1;fill-rule:nonzero;stroke:none;stroke-width:0;marker:none;enable-background:accumulate"
         d="m 419,141 c -1.1253,0 -2,0.8747 -2,2 v 1 c 0,-1.1253 0.8747,-2 2,-2 h 10 c 1.1253,0 2,0.8747 2,2 v -1 c 0,-1.1253 -0.8747,-2 -2,-2 z"
         id="rect3896"
         inkscape:connector-curvature="0" />
      <path
         style="color:#bebebe;display:inline;overflow:visible;visibility:visible;opacity:0.13;fill:#ffffff;fill-opacity:1;fill-rule:nonzero;stroke:none;stroke-width:0;marker:none;enable-background:accumulate"
         d="m 422,102 c -2.2333,0 -4,1.7667 -4,4 v 1 c 0,-2.2333 1.7667,-4 4,-4 h 12 c 2.2333,0 4,1.7667 4,4 v -1 c 0,-2.2333 -1.7667,-4 -4,-4 z"
         id="rect3898"
         inkscape:connector-curvature="0" />
      <path
         style="color:#bebebe;display:inline;overflow:visible;visibility:visible;opacity:0.13;fill:#ffffff;fill-opacity:1;fill-rule:nonzero;stroke:none;stroke-width:0;marker:none;enable-background:accumulate"
         d="m 424,54 c -3.3413,0 -6,2.658703 -6,6 v 1 c 0,-3.341297 2.6587,-6 6,-6 h 16 c 3.3413,0 6,2.658703 6,6 v -1 c 0,-3.341297 -2.6587,-6 -6,-6 z"
         id="rect3900"
         inkscape:connector-curvature="0" />
      <path
         style="color:#bebebe;display:inline;overflow:visible;visibility:visible;opacity:0.13;fill:#ffffff;fill-opacity:1;fill-rule:nonzero;stroke:none;stroke-width:0;marker:none;enable-background:accumulate"
         d="m 300,224 c -4.4493,0 -8,3.5507 -8,8 v 1 c 0,-4.4493 3.5507,-8 8,-8 h 24 c 4.4493,0 8,3.5507 8,8 v -1 c 0,-4.4493 -3.5507,-8 -8,-8 z"
         id="rect3902"
         inkscape:connector-curvature="0" />
      <path
         style="color:#bebebe;display:inline;overflow:visible;visibility:visible;opacity:0.13;fill:#ffffff;fill-opacity:1;fill-rule:nonzero;stroke:none;stroke-width:0;marker:none;enable-background:accumulate"
         d="m 310,33 c -9.4353,0 -17,7.564703 -17,17 v 1 c 0,-9.435297 7.5647,-17 17,-17 h 52 c 9.4353,0 17,7.564703 17,17 v -1 c 0,-9.435297 -7.5647,-17 -17,-17 z"
         id="rect3904"
         inkscape:connector-curvature="0" />
      <path
         style="color:#bebebe;display:inline;overflow:visible;visibility:visible;opacity:0.13;fill:#ffffff;fill-opacity:1;fill-rule:nonzero;stroke:none;stroke-width:0;marker:none;enable-background:accumulate"
         d="m 302.5,143 c -6.3883,0 -11.5,5.1117 -11.5,11.5 v 1 c 0,-6.3883 5.1117,-11.5 11.5,-11.5 h 35 c 6.3883,0 11.5,5.1117 11.5,11.5 v -1 c 0,-6.3883 -5.1117,-11.5 -11.5,-11.5 z"
         id="rect3906"
         inkscape:connector-curvature="0" />
      <path
         id="path4085"
         d="m 204,266 c 27.1633,0 49,-21.8367 49,-49 v -1 c 0,27.1633 -21.8367,49 -49,49 H 84 C 56.8367,265 35,243.1633 35,216 v 1 c 0,27.1633 21.8367,49 49,49 z"
         style="color:#bebebe;display:inline;overflow:visible;visibility:visible;opacity:0.5;fill:#000000;fill-opacity:1;fill-rule:nonzero;stroke:none;stroke-width:0;marker:none;enable-background:accumulate"
         inkscape:connector-curvature="0" />
      <path
         id="path4087"
         d="m 429,156 c 1.1253,0 2,-0.8747 2,-2 v -1 c 0,1.1253 -0.8747,2 -2,2 h -10 c -1.1253,0 -2,-0.8747 -2,-2 v 1 c 0,1.1253 0.8747,2 2,2 z"
         style="color:#bebebe;display:inline;overflow:visible;visibility:visible;opacity:0.3;fill:#000000;fill-opacity:1;fill-rule:nonzero;stroke:none;stroke-width:0;marker:none;enable-background:accumulate"
         inkscape:connector-curvature="0" />
      <path
         id="path4089"
         d="m 434,123 c 2.2333,0 4,-1.7667 4,-4 v -1 c 0,2.2333 -1.7667,4 -4,4 h -12 c -2.2333,0 -4,-1.7667 -4,-4 v 1 c 0,2.2333 1.7667,4 4,4 z"
         style="color:#bebebe;display:inline;overflow:visible;visibility:visible;opacity:0.3;fill:#000000;fill-opacity:1;fill-rule:nonzero;stroke:none;stroke-width:0;marker:none;enable-background:accumulate"
         inkscape:connector-curvature="0" />
      <path
         id="path4091"
         d="m 440,83 c 3.3413,0 6,-2.6587 6,-6 v -1 c 0,3.3413 -2.6587,6 -6,6 h -16 c -3.3413,0 -6,-2.6587 -6,-6 v 1 c 0,3.3413 2.6587,6 6,6 z"
         style="color:#bebebe;display:inline;overflow:visible;visibility:visible;opacity:0.5;fill:#000000;fill-opacity:1;fill-rule:nonzero;stroke:none;stroke-width:0;marker:none;enable-background:accumulate"
         inkscape:connector-curvature="0" />
      <path
         id="path4093"
         d="m 324,265 c 4.4493,0 8,-3.5507 8,-8 v -1 c 0,4.4493 -3.5507,8 -8,8 h -24 c -4.4493,0 -8,-3.5507 -8,-8 v 1 c 0,4.4493 3.5507,8 8,8 z"
         style="color:#bebebe;display:inline;overflow:visible;visibility:visible;opacity:0.5;fill:#000000;fill-opacity:1;fill-rule:nonzero;stroke:none;stroke-width:0;marker:none;enable-background:accumulate"
         inkscape:connector-curvature="0" />
      <path
         id="path4095"
         d="m 362,120 c 9.4353,0 17,-7.5647 17,-17 v -1 c 0,9.4353 -7.5647,17 -17,17 h -52 c -9.4353,0 -17,-7.5647 -17,-17 v 1 c 0,9.4353 7.5647,17 17,17 z"
         style="color:#bebebe;display:inline;overflow:visible;visibility:visible;opacity:0.5;fill:#000000;fill-opacity:1;fill-rule:nonzero;stroke:none;stroke-width:0;marker:none;enable-background:accumulate"
         inkscape:connector-curvature="0" />
      <path
         id="path4097"
         d="m 337.5,202 c 6.3883,0 11.5,-5.1117 11.5,-11.5 v -1 c 0,6.3883 -5.1117,11.5 -11.5,11.5 h -35 c -6.3883,0 -11.5,-5.1117 -11.5,-11.5 v 1 c 0,6.3883 5.1117,11.5 11.5,11.5 z"
         style="color:#bebebe;display:inline;overflow:visible;visibility:visible;opacity:0.5;fill:#000000;fill-opacity:1;fill-rule:nonzero;stroke:none;stroke-width:0;marker:none;enable-background:accumulate"
         inkscape:connector-curvature="0" />
      <path
         inkscape:connector-curvature="0"
         id="path4280"
         d="M 84,265 C 56.836703,265 35,243.1633 35,216 v -1 c 0,27.1633 21.836703,49 49,49 h 120 c 27.1633,0 49,-21.8367 49,-49 v 1 c 0,27.1633 -21.8367,49 -49,49 z"
         style="color:#bebebe;display:inline;overflow:visible;visibility:visible;opacity:0.1;fill:#ffffff;fill-opacity:1;fill-rule:nonzero;stroke:none;stroke-width:0;marker:none;enable-background:accumulate" />
      <path
         style="color:#bebebe;display:inline;overflow:visible;visibility:visible;opacity:0.1;fill:#ffffff;fill-opacity:1;fill-rule:nonzero;stroke:none;stroke-width:0;marker:none;enable-background:accumulate"
         d="m 300,264 c -4.4493,0 -8,-3.5507 -8,-8 v -1 c 0,4.4493 3.5507,8 8,8 h 24 c 4.4493,0 8,-3.5507 8,-8 v 1 c 0,4.4493 -3.5507,8 -8,8 z"
         id="path4294"
         inkscape:connector-curvature="0" />
      <path
         style="color:#bebebe;display:inline;overflow:visible;visibility:visible;opacity:0.1;fill:#ffffff;fill-opacity:1;fill-rule:nonzero;stroke:none;stroke-width:0;marker:none;enable-background:accumulate"
         d="m 302.5,201 c -6.3883,0 -11.5,-5.1117 -11.5,-11.5 v -1 c 0,6.3883 5.1117,11.5 11.5,11.5 h 35 c 6.3883,0 11.5,-5.1117 11.5,-11.5 v 1 c 0,6.3883 -5.1117,11.5 -11.5,11.5 z"
         id="path4296"
         inkscape:connector-curvature="0" />
      <path
         style="color:#bebebe;display:inline;overflow:visible;visibility:visible;opacity:0.1;fill:#ffffff;fill-opacity:1;fill-rule:nonzero;stroke:none;stroke-width:0;marker:none;enable-background:accumulate"
         d="m 310,119 c -9.4353,0 -17,-7.5647 -17,-17 v -1 c 0,9.4353 7.5647,17 17,17 h 52 c 9.4353,0 17,-7.5647 17,-17 v 1 c 0,9.4353 -7.5647,17 -17,17 z"
         id="path4298"
         inkscape:connector-curvature="0" />
      <path
         style="color:#bebebe;display:inline;overflow:visible;visibility:visible;opacity:0.1;fill:#ffffff;fill-opacity:1;fill-rule:nonzero;stroke:none;stroke-width:0;marker:none;enable-background:accumulate"
         d="m 424,82 c -3.3413,0 -6,-2.658703 -6,-6 v -1 c 0,3.341297 2.6587,6 6,6 h 16 c 3.3413,0 6,-2.658703 6,-6 v 1 c 0,3.341297 -2.6587,6 -6,6 z"
         id="path4300"
         inkscape:connector-curvature="0" />
      <path
         style="color:#bebebe;display:inline;overflow:visible;visibility:visible;opacity:0.1;fill:#ffffff;fill-opacity:1;fill-rule:nonzero;stroke:none;stroke-width:0;marker:none;enable-background:accumulate"
         d="m 422,122 c -2.2333,0 -4,-1.7667 -4,-4 v -1 c 0,2.2333 1.7667,4 4,4 h 12 c 2.2333,0 4,-1.7667 4,-4 v 1 c 0,2.2333 -1.7667,4 -4,4 z"
         id="path4302"
         inkscape:connector-curvature="0" />
      <path
         style="color:#bebebe;display:inline;overflow:visible;visibility:visible;opacity:0.1;fill:#ffffff;fill-opacity:1;fill-rule:nonzero;stroke:none;stroke-width:0;marker:none;enable-background:accumulate"
         d="m 419,154.5 c -1.1253,0 -2,-0.8747 -2,-2 v -1 c 0,1.1253 0.8747,2 2,2 h 10 c 1.1253,0 2,-0.8747 2,-2 v 1 c 0,1.1253 -0.8747,2 -2,2 z"
         id="path4304"
         inkscape:connector-curvature="0" />
    </g>
    <g
       inkscape:groupmode="layer"
       id="layer3"
       inkscape:label="Border"
       style="display:inline"
       sodipodi:insensitive="true">
      <path
         style="color:#bebebe;display:inline;overflow:visible;visibility:visible;opacity:0.41;fill:#000000;fill-opacity:1;fill-rule:nonzero;stroke:none;stroke-width:0;marker:none;enable-background:accumulate"
         d="m 422,101 c -2.77,0 -5,2.23 -5,5 v 12 c 0,2.77 2.23,5 5,5 h 12 c 2.77,0 5,-2.23 5,-5 v -12 c 0,-2.77 -2.23,-5 -5,-5 z m 0,1 h 12 c 2.2333,0 4,1.7667 4,4 v 12 c 0,2.2333 -1.7667,4 -4,4 h -12 c -2.2333,0 -4,-1.7667 -4,-4 v -12 c 0,-2.2333 1.7667,-4 4,-4 z"
         id="rect4099"
         inkscape:connector-curvature="0" />
      <path
         style="color:#bebebe;display:inline;overflow:visible;visibility:visible;opacity:0.41;fill:#000000;fill-opacity:1;fill-rule:nonzero;stroke:none;stroke-width:0;marker:none;enable-background:accumulate"
         d="m 424,53 c -3.878,0 -7,3.122 -7,7 v 16 c 0,3.878 3.122,7 7,7 h 16 c 3.878,0 7,-3.122 7,-7 V 60 c 0,-3.878 -3.122,-7 -7,-7 z m 0,1 h 16 c 3.3413,0 6,2.658703 6,6 v 16 c 0,3.341297 -2.6587,6 -6,6 h -16 c -3.3413,0 -6,-2.658703 -6,-6 V 60 c 0,-3.341297 2.6587,-6 6,-6 z"
         id="rect4151"
         inkscape:connector-curvature="0" />
      <path
         style="color:#bebebe;display:inline;overflow:visible;visibility:visible;opacity:0.41;fill:#000000;fill-opacity:1;fill-rule:nonzero;stroke:none;stroke-width:0;marker:none;enable-background:accumulate"
         d="m 419,140 c -1.662,0 -3,1.338 -3,3 v 10 c 0,1.662 1.338,3 3,3 h 10 c 1.662,0 3,-1.338 3,-3 v -10 c 0,-1.662 -1.338,-3 -3,-3 z m 0,1 h 10 c 1.1253,0 2,0.8747 2,2 v 10 c 0,1.1253 -0.8747,2 -2,2 h -10 c -1.1253,0 -2,-0.8747 -2,-2 v -10 c 0,-1.1253 0.8747,-2 2,-2 z"
         id="rect4095"
         inkscape:connector-curvature="0" />
      <path
         style="color:#bebebe;display:inline;overflow:visible;visibility:visible;opacity:0.41;fill:#000000;fill-opacity:1;fill-rule:nonzero;stroke:none;stroke-width:0;marker:none;enable-background:accumulate"
         d="m 300,223 c -4.986,0 -9,4.014 -9,9 v 24 c 0,4.986 4.014,9 9,9 h 24 c 4.986,0 9,-4.014 9,-9 v -24 c 0,-4.986 -4.014,-9 -9,-9 z m 0,1 h 24 c 4.4493,0 8,3.5507 8,8 v 24 c 0,4.4493 -3.5507,8 -8,8 h -24 c -4.4493,0 -8,-3.5507 -8,-8 v -24 c 0,-4.4493 3.5507,-8 8,-8 z"
         id="rect4783"
         inkscape:connector-curvature="0" />
      <path
         style="color:#bebebe;display:inline;overflow:visible;visibility:visible;opacity:0.41;fill:#000000;fill-opacity:1;fill-rule:nonzero;stroke:none;stroke-width:0;marker:none;enable-background:accumulate"
         d="m 302.5,142 c -6.925,0 -12.5,5.575 -12.5,12.5 v 35 c 0,6.925 5.575,12.5 12.5,12.5 h 35 c 6.925,0 12.5,-5.575 12.5,-12.5 v -35 c 0,-6.925 -5.575,-12.5 -12.5,-12.5 z m 0,1 h 35 c 6.3883,0 11.5,5.1117 11.5,11.5 v 35 c 0,6.3883 -5.1117,11.5 -11.5,11.5 h -35 c -6.3883,0 -11.5,-5.1117 -11.5,-11.5 v -35 c 0,-6.3883 5.1117,-11.5 11.5,-11.5 z"
         id="rect4515"
         inkscape:connector-curvature="0" />
      <path
         style="color:#bebebe;display:inline;overflow:visible;visibility:visible;opacity:0.41;fill:#000000;fill-opacity:1;fill-rule:nonzero;stroke:none;stroke-width:0;marker:none;enable-background:accumulate"
         d="m 310,32 c -9.972,0 -18,8.028 -18,18 v 52 c 0,9.972 8.028,18 18,18 h 52 c 9.972,0 18,-8.028 18,-18 V 50 c 0,-9.972 -8.028,-18 -18,-18 z m 0,1 h 52 c 9.4353,0 17,7.564703 17,17 v 52 c 0,9.4353 -7.5647,17 -17,17 h -52 c -9.4353,0 -17,-7.5647 -17,-17 V 50 c 0,-9.435297 7.5647,-17 17,-17 z"
         id="rect4511"
         inkscape:connector-curvature="0" />
      <path
         style="color:#bebebe;display:inline;overflow:visible;visibility:visible;opacity:0.41;fill:#000000;fill-opacity:1;fill-rule:nonzero;stroke:none;stroke-width:0;marker:none;enable-background:accumulate"
         d="M 84,46 C 56.3,46 34,68.3 34,96 v 120 c 0,27.7 22.3,50 50,50 h 120 c 27.7,0 50,-22.3 50,-50 V 96 C 254,68.3 231.7,46 204,46 Z m 0,1 h 120 c 27.1633,0 49,21.836703 49,49 v 120 c 0,27.1633 -21.8367,49 -49,49 H 84 C 56.836703,265 35,243.1633 35,216 V 96 C 35,68.836703 56.836703,47 84,47 Z"
         id="rect4040"
         inkscape:connector-curvature="0" />
    </g>
  </g>
</svg>
