<?xml version="1.0" encoding="UTF-8" standalone="no"?>
<!-- Created with Inkscape (http://www.inkscape.org/) -->

<svg
   inkscape:export-ydpi="90.000000"
   inkscape:export-xdpi="90.000000"
   width="480"
   height="300"
   id="svg11300"
   sodipodi:version="0.32"
   inkscape:version="1.1.2 (0a00cf5339, 2022-02-04)"
   sodipodi:docname="anydesk (copy).svg"
   inkscape:output_extension="org.inkscape.output.svg.inkscape"
   version="1.0"
   style="display:inline;enable-background:new"
   inkscape:export-filename="/home/sam/moka-next-template.png"
   xmlns:inkscape="http://www.inkscape.org/namespaces/inkscape"
   xmlns:sodipodi="http://sodipodi.sourceforge.net/DTD/sodipodi-0.dtd"
   xmlns="http://www.w3.org/2000/svg"
   xmlns:svg="http://www.w3.org/2000/svg"
   xmlns:rdf="http://www.w3.org/1999/02/22-rdf-syntax-ns#"
   xmlns:cc="http://creativecommons.org/ns#"
   xmlns:dc="http://purl.org/dc/elements/1.1/">
  <sodipodi:namedview
     stroke="#ef2929"
     fill="#f57900"
     id="base"
     pagecolor="#ffffff"
     bordercolor="#000000"
     borderopacity="0.54509804"
     inkscape:pageopacity="0"
     inkscape:pageshadow="2"
     inkscape:zoom="1"
     inkscape:cx="363.49999"
     inkscape:cy="157.5"
     inkscape:current-layer="layer2"
     showgrid="false"
     inkscape:grid-bbox="true"
     inkscape:document-units="px"
     inkscape:showpageshadow="false"
     inkscape:window-width="1920"
     inkscape:window-height="1008"
     inkscape:window-x="0"
     inkscape:window-y="40"
     width="400px"
     height="300px"
     inkscape:snap-nodes="true"
     inkscape:snap-bbox="true"
     gridtolerance="10000"
     inkscape:object-nodes="true"
     inkscape:snap-grids="true"
     showguides="true"
     inkscape:guide-bbox="true"
     inkscape:window-maximized="1"
     inkscape:bbox-nodes="true"
     inkscape:bbox-paths="true"
     inkscape:snap-bbox-edge-midpoints="true"
     inkscape:snap-bbox-midpoints="true"
     inkscape:pagecheckerboard="0">
    <inkscape:grid
       spacingy="1"
       spacingx="1"
       id="grid5883"
       type="xygrid"
       enabled="true"
       visible="true"
       empspacing="4"
       snapvisiblegridlinesonly="true"
       dotted="false"
       color="#000000"
       opacity="0.1254902"
       empcolor="#203ef3"
       empopacity="0.36470588"
       originx="0"
       originy="0" />
    <inkscape:grid
       type="xygrid"
       id="grid11592"
       empspacing="8"
       visible="true"
       enabled="false"
       spacingx="0.5"
       spacingy="0.5"
       color="#ff0000"
       opacity="0.1254902"
       empcolor="#ff0000"
       empopacity="0.25098039"
       snapvisiblegridlinesonly="true"
       dotted="true"
       originx="0"
       originy="0" />
  </sodipodi:namedview>
  <defs
     id="defs3">
    <linearGradient
       id="linearGradient905">
      <stop
         style="stop-color:#ff7139;stop-opacity:1"
         offset="0"
         id="stop901" />
      <stop
         style="stop-color:#ff7139;stop-opacity:1"
         offset="1"
         id="stop903" />
    </linearGradient>
    <linearGradient
       id="linearGradient3984">
      <stop
         id="stop3986"
         offset="0"
         style="stop-color:#f57d33;stop-opacity:1" />
      <stop
         id="stop3988"
         offset="1"
         style="stop-color:#faa653;stop-opacity:1;" />
    </linearGradient>
  </defs>
  <metadata
     id="metadata4">
    <rdf:RDF>
      <cc:Work
         rdf:about="">
        <dc:format>image/svg+xml</dc:format>
        <dc:type
           rdf:resource="http://purl.org/dc/dcmitype/StillImage" />
        <dc:creator>
          <cc:Agent>
            <dc:title>Sam Hewitt</dc:title>
          </cc:Agent>
        </dc:creator>
        <dc:source />
        <cc:license
           rdf:resource="" />
        <dc:title />
        <dc:subject>
          <rdf:Bag />
        </dc:subject>
        <dc:date />
        <dc:rights>
          <cc:Agent>
            <dc:title />
          </cc:Agent>
        </dc:rights>
        <dc:publisher>
          <cc:Agent>
            <dc:title />
          </cc:Agent>
        </dc:publisher>
        <dc:identifier />
        <dc:relation />
        <dc:language />
        <dc:coverage />
        <dc:description />
        <dc:contributor>
          <cc:Agent>
            <dc:title />
          </cc:Agent>
        </dc:contributor>
      </cc:Work>
      <cc:Work
         rdf:about="">
        <dc:format>image/svg+xml</dc:format>
        <dc:type
           rdf:resource="http://purl.org/dc/dcmitype/StillImage" />
      </cc:Work>
    </rdf:RDF>
  </metadata>
  <g
     style="display:inline"
     inkscape:groupmode="layer"
     inkscape:label="Icon"
     id="layer1">
    <g
       style="display:none"
       inkscape:label="Baseplate"
       id="layer7"
       inkscape:groupmode="layer">
      <text
         y="19.745117"
         xml:space="preserve"
         x="15.006836"
         style="font-style:normal;font-variant:normal;font-weight:normal;font-stretch:normal;line-height:0%;font-family:'DejaVu Sans';-inkscape-font-specification:'DejaVu Sans';display:inline;fill:#000000;fill-opacity:1;stroke:none;enable-background:new"
         inkscape:label="context"
         id="context"><tspan
           style="font-style:normal;font-variant:normal;font-weight:normal;font-stretch:normal;font-size:18px;line-height:1.25;font-family:'DejaVu Sans';-inkscape-font-specification:'DejaVu Sans'"
           y="19.745117"
           x="15.006836"
           sodipodi:role="line"
           id="tspan3933">apps</tspan></text>
      <text
         y="19.745117"
         xml:space="preserve"
         x="122.48828"
         style="font-style:normal;font-variant:normal;font-weight:bold;font-stretch:normal;line-height:0%;font-family:'DejaVu Sans';-inkscape-font-specification:'DejaVu Sans Bold';text-align:start;writing-mode:lr-tb;text-anchor:start;display:inline;fill:#000000;fill-opacity:1;stroke:none;enable-background:new"
         inkscape:label="icon-name"
         id="icon-name"><tspan
           style="font-style:normal;font-variant:normal;font-weight:bold;font-stretch:normal;font-size:18px;line-height:1.25;font-family:'DejaVu Sans';-inkscape-font-specification:'DejaVu Sans Bold'"
           y="19.745117"
           x="122.48828"
           sodipodi:role="line"
           id="tspan3937">signal</tspan></text>
      <rect
         style="fill:#eeeeec;fill-opacity:1;fill-rule:nonzero;stroke:none;stroke-width:2;marker:none;visibility:visible;display:inline;overflow:visible;enable-background:accumulate"
         id="rect16x16"
         width="16"
         height="16"
         x="416"
         y="140"
         inkscape:label="16x16" />
      <rect
         style="fill:#d4d4d4;fill-opacity:1;fill-rule:nonzero;stroke:none;stroke-width:2;marker:none;visibility:visible;display:inline;overflow:visible;enable-background:accumulate"
         id="rect24x24"
         width="24"
         height="24"
         x="416"
         y="100"
         inkscape:label="24x24" />
      <rect
         style="fill:#eeeeec;fill-opacity:1;fill-rule:nonzero;stroke:none;stroke-width:2;marker:none;visibility:visible;display:inline;overflow:visible;enable-background:accumulate"
         id="rect32x32"
         width="32"
         height="32"
         x="416"
         y="52"
         inkscape:label="32x32" />
      <rect
         inkscape:label="22x22"
         y="101"
         x="417"
         height="22"
         width="22"
         id="rect22x22"
         style="fill:#eeeeec;fill-opacity:1;fill-rule:nonzero;stroke:none;stroke-width:2;marker:none;visibility:visible;display:inline;overflow:visible;enable-background:accumulate" />
      <rect
         inkscape:label="48x48"
         y="220"
         x="288"
         height="48"
         width="48"
         id="rect48x48"
         style="fill:#eeeeec;fill-opacity:1;fill-rule:nonzero;stroke:none;stroke-width:2;marker:none;visibility:visible;display:inline;overflow:visible;enable-background:accumulate" />
      <rect
         style="fill:#eeeeec;fill-opacity:1;fill-rule:nonzero;stroke:none;stroke-width:2;marker:none;visibility:visible;display:inline;overflow:visible;enable-background:accumulate"
         id="rect256x256"
         width="256"
         height="256"
         x="16"
         y="28"
         inkscape:label="256x256" />
      <rect
         style="fill:#eeeeec;fill-opacity:1;fill-rule:nonzero;stroke:none;stroke-width:2;marker:none;visibility:visible;display:inline;overflow:visible;enable-background:accumulate"
         id="rect64x64"
         width="64"
         height="64"
         x="288"
         y="140"
         inkscape:label="64x64" />
      <rect
         style="fill:#eeeeec;fill-opacity:1;fill-rule:nonzero;stroke:none;stroke-width:2;marker:none;visibility:visible;display:inline;overflow:visible;enable-background:accumulate"
         id="rect96x96"
         width="96"
         height="96"
         x="288"
         y="28"
         inkscape:label="96x96" />
    </g>
    <g
       inkscape:groupmode="layer"
       id="layer4"
       inkscape:label="Shadow"
       style="display:inline"
       sodipodi:insensitive="true">
      <rect
         ry="50"
         y="47"
         x="34"
         height="220"
         width="220"
         id="rect4114"
         style="opacity:0.1;color:#bebebe;fill:#000000;fill-opacity:1;fill-rule:nonzero;stroke:none;stroke-width:0;marker:none;visibility:visible;display:inline;overflow:visible;enable-background:accumulate" />
      <rect
         style="opacity:0.1;color:#bebebe;fill:#000000;fill-opacity:1;fill-rule:nonzero;stroke:none;stroke-width:0;marker:none;visibility:visible;display:inline;overflow:visible;enable-background:accumulate"
         id="rect4120"
         width="30"
         height="30"
         x="417"
         y="54"
         ry="7" />
      <rect
         transform="scale(1,-1)"
         ry="9"
         y="-266"
         x="291"
         height="42"
         width="42"
         id="rect4122"
         style="opacity:0.1;color:#bebebe;fill:#000000;fill-opacity:1;fill-rule:nonzero;stroke:none;stroke-width:0;marker:none;visibility:visible;display:inline;overflow:visible;enable-background:accumulate" />
      <rect
         style="opacity:0.1;color:#bebebe;fill:#000000;fill-opacity:1;fill-rule:nonzero;stroke:none;stroke-width:0;marker:none;visibility:visible;display:inline;overflow:visible;enable-background:accumulate"
         id="rect4124"
         width="88"
         height="88"
         x="292"
         y="33"
         ry="18" />
      <rect
         ry="12.5"
         y="143"
         x="290"
         height="60"
         width="60"
         id="rect4126"
         style="opacity:0.1;color:#bebebe;fill:#000000;fill-opacity:1;fill-rule:nonzero;stroke:none;stroke-width:0;marker:none;visibility:visible;display:inline;overflow:visible;enable-background:accumulate" />
      <path
         id="path4268"
         d="m 422,101 c -2.77,0 -5,2.23 -5,5 l 0,12 c 0,2.77 2.23,5 5,5 l 12,0 c 2.77,0 5,-2.23 5,-5 l 0,-12 c 0,-2.77 -2.23,-5 -5,-5 z"
         style="opacity:0.1;color:#bebebe;fill:#000000;fill-opacity:1;fill-rule:nonzero;stroke:none;stroke-width:0;marker:none;visibility:visible;display:inline;overflow:visible;enable-background:accumulate"
         inkscape:connector-curvature="0"
         sodipodi:nodetypes="sssssssss" />
      <path
         id="path4270"
         d="m 419,140 c -1.662,0 -3,1.338 -3,3 l 0,10 c 0,1.662 1.338,3 3,3 l 10,0 c 1.662,0 3,-1.338 3,-3 l 0,-10 c 0,-1.662 -1.338,-3 -3,-3 z"
         style="opacity:0.1;color:#bebebe;fill:#000000;fill-opacity:1;fill-rule:nonzero;stroke:none;stroke-width:0;marker:none;visibility:visible;display:inline;overflow:visible;enable-background:accumulate"
         inkscape:connector-curvature="0"
         sodipodi:nodetypes="sssssssss" />
    </g>
    <g
       inkscape:groupmode="layer"
       id="layer2"
       inkscape:label="Background"
       style="display:inline">
      <g
         id="g3277">
        <g
           id="g2466">
          <path
             style="color:#bebebe;display:inline;overflow:visible;visibility:visible;fill:#3a76f0;fill-opacity:1;fill-rule:nonzero;stroke:none;stroke-width:2;marker:none;enable-background:accumulate"
             d="M 84,46.5 C 56.568735,46.5 34.5,68.568732 34.5,96 v 120 c 0,27.43127 22.068735,49.5 49.5,49.5 h 120 c 27.43127,0 49.5,-22.06873 49.5,-49.5 V 96 C 253.5,68.568732 231.43127,46.5 204,46.5 Z"
             id="path4200" />
          <path
             id="path4"
             style="fill:#ffffff;stroke-width:0.1875"
             d="m 144,90.004701 a 65.86875,65.86875 0 0 0 -9.88111,0.74524 l 0.91846,6.112426 a 59.83125,59.83125 0 0 1 17.92529,0 l 0.91846,-6.112426 A 65.86875,65.86875 0 0 0 144,90.004701 Z m -15.84375,1.926636 a 65.175,65.175 0 0 0 -18.26258,7.55603 l 3.16883,5.306393 a 59.925,59.925 0 0 1 16.57507,-6.862423 z m 31.6875,0 -1.48133,6 a 59.925,59.925 0 0 1 16.57508,6.862423 l 3.20617,-5.306393 a 65.64375,65.64375 0 0 0 -18.29992,-7.55603 z M 144,102.37494 c -13.40426,0.008 -25.64277,4.94185 -35.0376,13.07153 a 53.625,53.625 0 0 0 -0.11426,0.0989 c -1.88039,1.63641 -3.64444,3.4004 -5.28076,5.28076 a 53.625,53.625 0 0 0 -0.14135,0.16333 c -1.62903,1.8872 -3.12797,3.88764 -4.48463,5.99048 a 53.625,53.625 0 0 0 -0.0641,0.10034 c -4.05116,6.31004 -6.81901,13.5183 -7.92883,21.26587 a 53.625,53.625 0 0 0 -0.0136,0.10767 c -0.34911,2.47271 -0.54126,4.99594 -0.54126,7.56482 a 53.625,53.625 0 0 0 2.05335,14.56091 53.75625,53.75625 0 0 0 0.0597,0.27356 53.625,53.625 0 0 0 2.30274,6.28894 53.75625,53.75625 0 0 0 0.2937,0.78699 53.625,53.625 0 0 0 2.92016,5.46387 53.75625,53.75625 0 0 0 0.60169,1.12573 l -5.15625,22.01257 21.9939,-5.15625 c 1.869,1.17564 3.7866,2.20611 5.7345,3.12524 a 53.625,53.625 0 0 0 1.02465,0.47645 c 2.04963,0.91493 4.13444,1.6878 6.2428,2.32837 a 53.625,53.625 0 0 0 0.91883,0.26952 c 2.17744,0.61902 4.37619,1.09774 6.5863,1.43262 a 53.625,53.625 0 0 0 0.91516,0.12635 c 2.22499,0.29782 4.45674,0.46054 6.68445,0.4779 a 53.625,53.625 0 0 0 0.44934,0.0322 53.625,53.625 0 0 0 0.56616,-0.0406 c 2.21245,-0.0246 4.41726,-0.17684 6.60205,-0.47168 a 53.625,53.625 0 0 0 1.05103,-0.16113 c 2.19266,-0.34003 4.36329,-0.80629 6.49694,-1.41321 a 53.625,53.625 0 0 0 0.88001,-0.26733 c 2.19394,-0.66469 4.3485,-1.4628 6.44641,-2.40491 a 53.625,53.625 0 0 0 0.52662,-0.24682 c 2.18364,-1.00917 4.30644,-2.16259 6.34936,-3.46692 a 53.625,53.625 0 0 0 0.16955,-0.11207 c 6.21288,-4.00009 11.686,-9.35102 15.94812,-15.94702 a 53.625,53.625 0 0 0 0.115,-0.17211 c 0.0791,-0.12342 0.1642,-0.24048 0.24243,-0.36475 1.27479,-2.02512 2.38119,-4.1074 3.35486,-6.22449 a 53.625,53.625 0 0 0 0.0483,-0.10364 c 10.999,-24.05051 2.80733,-53.13162 -20.18445,-67.62195 l -0.17066,-0.0491 a 53.625,53.625 0 0 0 -28.39115,-8.18119 z m -39.1875,0.48743 a 66.4875,66.4875 0 0 0 -13.95008,13.95007 l 4.98743,3.71265 a 59.7375,59.7375 0 0 1 12.67529,-12.6753 z m 78.375,0 -3.71265,4.98742 a 59.7375,59.7375 0 0 1 12.67529,12.6753 l 4.98743,-3.71265 A 66.4875,66.4875 0 0 0 183.1875,102.86237 Z m -95.70008,19.01257 a 65.53125,65.53125 0 0 0 -7.55603,18.28125 l 6,1.48133 a 59.925,59.925 0 0 1 6.86243,-16.57508 z m 113.02515,0 -5.3064,3.1875 a 59.5875,59.5875 0 0 1 6.86243,16.5564 l 6,-1.48132 a 65.41875,65.41875 0 0 0 -7.55603,-18.26258 z M 78.75,146.0998 a 66,66 0 0 0 0,19.78125 l 6.11242,-0.91846 a 59.90625,59.90625 0 0 1 -0.67492,-8.96265 59.71875,59.71875 0 0 1 0.67492,-8.96264 z m 130.5,0 -6.11243,0.9375 a 59.71875,59.71875 0 0 1 0.67493,8.96264 59.90625,59.90625 0 0 1 -0.67493,8.96265 l 6.11243,0.91846 a 66,66 0 0 0 0,-19.78125 z m -123.31861,24.24389 -6,1.48133 a 66.24375,66.24375 0 0 0 6.07471,15.6936 l -1.51868,6.52515 6.03772,1.38757 2.0625,-8.85022 a 59.2875,59.2875 0 0 1 -6.65625,-16.23743 z m 116.13721,0 a 59.8125,59.8125 0 0 1 -6.86243,16.59375 l 5.3064,3.1875 a 65.41875,65.41875 0 0 0 7.55603,-18.29992 z m -9.91846,21.13111 a 59.64375,59.64375 0 0 1 -12.67529,12.65625 l 3.67529,4.98779 a 66.58125,66.58125 0 0 0 13.98743,-13.9314 z m -108.9375,8.08154 -2.98132,12.76868 a 6.1875,6.1875 0 0 0 4.61243,7.4436 6.46875,6.46875 0 0 0 2.8125,0 l 12.76867,-2.9436 -1.40625,-6.0564 -12.76867,2.96265 2.98132,-12.76868 z m 91.72486,7.64978 a 59.5875,59.5875 0 0 1 -16.5564,6.86243 l 1.48132,6 a 65.68125,65.68125 0 0 0 18.2439,-7.57471 z m -61.51868,0.1875 -0.0564,0.0377 -8.84985,2.0625 1.40625,6.03735 6.5061,-1.51867 a 65.4375,65.4375 0 0 0 15.69397,6.07507 l 1.48096,-6 a 59.38125,59.38125 0 0 1 -16.18103,-6.69397 z m 21.61853,7.7439 -0.91846,6.11242 a 65.86875,65.86875 0 0 0 19.76221,0 l -0.91846,-6.11242 a 59.83125,59.83125 0 0 1 -17.92529,0 z" />
        </g>
        <g
           id="g2554">
          <path
             style="color:#bebebe;display:inline;overflow:visible;visibility:visible;fill:#3a76f0;fill-opacity:1;fill-rule:nonzero;stroke:none;stroke-width:2;marker:none;enable-background:accumulate"
             d="m 424,53.5 c -3.60654,0 -6.5,2.893464 -6.5,6.5 v 16 c 0,3.606536 2.89346,6.5 6.5,6.5 h 16 c 3.60654,0 6.5,-2.893464 6.5,-6.5 V 60 c 0,-3.606536 -2.89346,-6.5 -6.5,-6.5 z"
             id="path4206" />
          <path
             id="path2546"
             style="fill:#ffffff;stroke-width:0.0248288"
             d="m 432,59.26093 a 8.7223458,8.7223458 0 0 0 -1.30845,0.0987 l 0.12162,0.8094 a 7.9228595,7.9228595 0 0 1 2.37367,0 l 0.12162,-0.8094 A 8.7223458,8.7223458 0 0 0 432,59.26093 Z m -2.09803,0.25513 a 8.6304794,8.6304794 0 0 0 -2.41833,1.00057 l 0.41962,0.70267 a 7.9352739,7.9352739 0 0 1 2.19487,-0.90872 z m 4.19606,0 -0.19615,0.79452 a 7.9352739,7.9352739 0 0 1 2.19487,0.90872 l 0.42456,-0.70267 a 8.6925513,8.6925513 0 0 0 -2.42328,-1.00057 z M 432,60.899 c -1.77499,10e-4 -3.39561,0.6544 -4.63968,1.73093 a 7.1010273,7.1010273 0 0 0 -0.0151,0.0131 c -0.249,0.21669 -0.4826,0.45028 -0.69928,0.69928 a 7.1010273,7.1010273 0 0 0 -0.0187,0.0216 c -0.21571,0.2499 -0.4142,0.5148 -0.59385,0.79326 a 7.1010273,7.1010273 0 0 0 -0.008,0.0133 c -0.53645,0.83558 -0.90297,1.7901 -1.04994,2.81603 a 7.1010273,7.1010273 0 0 0 -0.002,0.0143 c -0.0462,0.32743 -0.0717,0.66156 -0.0717,1.00173 a 7.1010273,7.1010273 0 0 0 0.2719,1.92816 7.1184075,7.1184075 0 0 0 0.008,0.0362 7.1010273,7.1010273 0 0 0 0.30493,0.83279 7.1184075,7.1184075 0 0 0 0.0389,0.10421 7.1010273,7.1010273 0 0 0 0.38669,0.72353 7.1184075,7.1184075 0 0 0 0.0797,0.14906 l -0.68279,2.91491 2.91244,-0.68279 c 0.24749,0.15568 0.50142,0.29213 0.75936,0.41384 a 7.1010273,7.1010273 0 0 0 0.13569,0.0631 c 0.27141,0.12115 0.54748,0.2235 0.82667,0.30832 a 7.1010273,7.1010273 0 0 0 0.12167,0.0357 c 0.28834,0.082 0.57949,0.14536 0.87216,0.18971 a 7.1010273,7.1010273 0 0 0 0.12118,0.0167 c 0.29464,0.0394 0.59016,0.061 0.88516,0.0633 a 7.1010273,7.1010273 0 0 0 0.0595,0.004 7.1010273,7.1010273 0 0 0 0.075,-0.005 c 0.29297,-0.003 0.58493,-0.0234 0.87424,-0.0625 a 7.1010273,7.1010273 0 0 0 0.13918,-0.0213 c 0.29035,-0.045 0.57779,-0.10677 0.86033,-0.18713 a 7.1010273,7.1010273 0 0 0 0.11653,-0.0354 c 0.29052,-0.088 0.57583,-0.19371 0.85363,-0.31846 a 7.1010273,7.1010273 0 0 0 0.0697,-0.0327 c 0.28916,-0.13363 0.57026,-0.28637 0.84078,-0.45909 a 7.1010273,7.1010273 0 0 0 0.0224,-0.0148 c 0.82271,-0.52969 1.54746,-1.23826 2.11185,-2.1117 a 7.1010273,7.1010273 0 0 0 0.0152,-0.0228 c 0.0105,-0.0163 0.0217,-0.0318 0.0321,-0.0483 0.1688,-0.26817 0.31531,-0.54391 0.44425,-0.82425 a 7.1010273,7.1010273 0 0 0 0.006,-0.0137 c 1.45649,-3.18477 0.37175,-7.03569 -2.67282,-8.9545 l -0.0226,-0.006 a 7.1010273,7.1010273 0 0 0 -3.75956,-1.08336 z m -5.18921,0.0645 a 8.8042807,8.8042807 0 0 0 -1.84727,1.84727 l 0.66044,0.49163 a 7.9104451,7.9104451 0 0 1 1.67846,-1.67846 z m 10.37843,0 -0.49163,0.66044 a 7.9104451,7.9104451 0 0 1 1.67846,1.67846 l 0.66043,-0.49163 a 8.8042807,8.8042807 0 0 0 -1.84726,-1.84727 z m -12.67262,2.51765 a 8.677654,8.677654 0 0 0 -1.00057,2.42081 l 0.79452,0.19615 a 7.9352739,7.9352739 0 0 1 0.90873,-2.19487 z m 14.9668,0 -0.70267,0.42209 a 7.8905821,7.8905821 0 0 1 0.90872,2.1924 l 0.79452,-0.19616 a 8.6627568,8.6627568 0 0 0 -1.00057,-2.41833 z m -16.12381,3.20786 a 8.7397259,8.7397259 0 0 0 0,2.61943 l 0.80941,-0.12162 a 7.932791,7.932791 0 0 1 -0.0894,-1.18683 7.9079622,7.9079622 0 0 1 0.0894,-1.18684 z m 17.28082,0 -0.8094,0.12414 a 7.9079622,7.9079622 0 0 1 0.0894,1.18684 7.932791,7.932791 0 0 1 -0.0894,1.18683 l 0.8094,0.12162 a 8.7397259,8.7397259 0 0 0 0,-2.61943 z m -16.32986,3.21038 -0.79452,0.19615 a 8.7720033,8.7720033 0 0 0 0.80442,2.07815 l -0.20111,0.86406 0.79952,0.18375 0.27311,-1.17195 a 7.8508561,7.8508561 0 0 1 -0.88142,-2.15016 z m 15.3789,0 a 7.9203766,7.9203766 0 0 1 -0.90872,2.19734 l 0.70267,0.42209 a 8.6627568,8.6627568 0 0 0 1.00057,-2.42328 z m -1.3134,2.79818 a 7.8980307,7.8980307 0 0 1 -1.67846,1.67594 l 0.48668,0.66049 a 8.8166951,8.8166951 0 0 0 1.85221,-1.8448 z m -14.42551,1.07016 -0.39479,1.69083 a 0.81934931,0.81934931 0 0 0 0.61078,0.98568 0.85659246,0.85659246 0 0 0 0.37243,0 l 1.69083,-0.38979 -0.18622,-0.80199 -1.69083,0.39231 0.39479,-1.69083 z m 12.14621,1.01298 a 7.8905821,7.8905821 0 0 1 -2.1924,0.90873 l 0.19616,0.79452 a 8.697517,8.697517 0 0 0 2.41585,-1.00305 z m -8.14631,0.0248 -0.007,0.005 -1.1719,0.27312 0.18622,0.79947 0.86154,-0.20111 a 8.6652396,8.6652396 0 0 0 2.07819,0.80447 l 0.19611,-0.79452 a 7.8632705,7.8632705 0 0 1 -2.14269,-0.88642 z m 2.86273,1.02545 -0.12162,0.80941 a 8.7223458,8.7223458 0 0 0 2.61691,0 l -0.12162,-0.80941 a 7.9228595,7.9228595 0 0 1 -2.37367,0 z" />
        </g>
        <g
           id="g2724">
          <path
             style="color:#bebebe;display:inline;overflow:visible;visibility:visible;fill:#3a76f0;fill-opacity:1;fill-rule:nonzero;stroke:none;stroke-width:2;marker:none;enable-background:accumulate"
             d="m 310,32.5 c -9.70255,0 -17.5,7.797452 -17.5,17.5 v 52 c 0,9.70255 7.79745,17.5 17.5,17.5 h 52 c 9.70255,0 17.5,-7.79745 17.5,-17.5 V 50 c 0,-9.702548 -7.79745,-17.5 -17.5,-17.5 z"
             id="path4210" />
          <path
             id="path2716"
             style="fill:#ffffff;stroke-width:0.0744863"
             d="m 336,49.782684 a 26.167037,26.167037 0 0 0 -3.92537,0.29606 l 0.36486,2.42822 a 23.768579,23.768579 0 0 1 7.12101,0 l 0.36487,-2.42822 A 26.167037,26.167037 0 0 0 336,49.782684 Z m -6.29409,0.76538 a 25.891438,25.891438 0 0 0 -7.255,3.00171 l 1.25885,2.10802 a 23.805822,23.805822 0 0 1 6.58462,-2.72617 z m 12.58818,0 -0.58847,2.38356 a 23.805822,23.805822 0 0 1 6.58462,2.72617 l 1.27368,-2.10802 a 26.077654,26.077654 0 0 0 -7.26983,-3.00171 z M 336,54.696894 c -5.32498,0.003 -10.18685,1.9632 -13.91905,5.1928 a 21.303082,21.303082 0 0 0 -0.0454,0.0393 c -0.747,0.65009 -1.44779,1.35085 -2.09783,2.09784 a 21.303082,21.303082 0 0 0 -0.0562,0.0649 c -0.64715,0.74971 -1.24262,1.5444 -1.78156,2.37978 a 21.303082,21.303082 0 0 0 -0.0255,0.0399 c -1.60936,2.50672 -2.70892,5.37028 -3.14981,8.44808 a 21.303082,21.303082 0 0 0 -0.005,0.0428 c -0.13869,0.98231 -0.21502,1.98469 -0.21502,3.00521 a 21.303082,21.303082 0 0 0 0.81571,5.78447 21.355222,21.355222 0 0 0 0.0237,0.10867 21.303082,21.303082 0 0 0 0.91479,2.49835 21.355222,21.355222 0 0 0 0.11667,0.31264 21.303082,21.303082 0 0 0 1.16007,2.17058 21.355222,21.355222 0 0 0 0.23902,0.4472 l -2.04837,8.74472 8.7373,-2.04837 c 0.74248,0.46704 1.50427,0.8764 2.27809,1.24153 a 21.303082,21.303082 0 0 0 0.40706,0.18928 c 0.81423,0.36346 1.64244,0.6705 2.48001,0.92497 a 21.303082,21.303082 0 0 0 0.36502,0.10707 c 0.86501,0.24591 1.73848,0.43609 2.61647,0.56912 a 21.303082,21.303082 0 0 0 0.36356,0.0502 c 0.8839,0.11832 1.77048,0.18296 2.65546,0.18986 a 21.303082,21.303082 0 0 0 0.17851,0.0128 21.303082,21.303082 0 0 0 0.22491,-0.0161 c 0.87892,-0.01 1.7548,-0.0703 2.62273,-0.18738 a 21.303082,21.303082 0 0 0 0.41754,-0.064 c 0.87105,-0.13508 1.73336,-0.32031 2.58097,-0.56141 a 21.303082,21.303082 0 0 0 0.3496,-0.1062 c 0.87156,-0.26406 1.72748,-0.58112 2.5609,-0.95538 a 21.303082,21.303082 0 0 0 0.2092,-0.0981 c 0.86748,-0.4009 1.71078,-0.85911 2.52235,-1.37727 a 21.303082,21.303082 0 0 0 0.0674,-0.0445 c 2.46813,-1.58908 4.64238,-3.71479 6.33555,-6.33512 a 21.303082,21.303082 0 0 0 0.0457,-0.0684 c 0.0314,-0.049 0.0652,-0.0955 0.0963,-0.1449 0.50642,-0.8045 0.94595,-1.63171 1.33275,-2.47274 a 21.303082,21.303082 0 0 0 0.0192,-0.0412 c 4.36946,-9.55431 1.11524,-21.10708 -8.01848,-26.86351 l -0.0678,-0.0195 a 21.303082,21.303082 0 0 0 -11.27868,-3.25006 z m -15.56764,0.19363 a 26.412842,26.412842 0 0 0 -5.54181,5.54181 l 1.98131,1.47489 a 23.731335,23.731335 0 0 1 5.03539,-5.03539 z m 31.13528,0 -1.47489,1.98131 a 23.731335,23.731335 0 0 1 5.03539,5.03539 l 1.9813,-1.47489 a 26.412842,26.412842 0 0 0 -5.5418,-5.54181 z m -38.01784,7.55294 a 26.032962,26.032962 0 0 0 -3.00171,7.26242 l 2.38356,0.58847 a 23.805822,23.805822 0 0 1 2.72617,-6.58462 z m 44.9004,0 -2.10802,1.26627 a 23.671746,23.671746 0 0 1 2.72617,6.5772 l 2.38356,-0.58847 a 25.98827,25.98827 0 0 0 -3.00171,-7.255 z m -48.37143,9.62358 a 26.219178,26.219178 0 0 0 0,7.8583 l 2.42822,-0.36487 a 23.798373,23.798373 0 0 1 -0.26812,-3.5605 23.723887,23.723887 0 0 1 0.26812,-3.5605 z m 51.84246,0 -2.42822,0.37243 a 23.723887,23.723887 0 0 1 0.26812,3.5605 23.798373,23.798373 0 0 1 -0.26812,3.5605 l 2.42822,0.36487 a 26.219178,26.219178 0 0 0 0,-7.8583 z m -48.98958,9.63113 -2.38356,0.58847 a 26.31601,26.31601 0 0 0 2.41324,6.23445 l -0.60331,2.59218 2.39854,0.55123 0.81935,-3.51584 a 23.552568,23.552568 0 0 1 -2.64426,-6.45049 z m 46.1367,0 a 23.76113,23.76113 0 0 1 -2.72617,6.59204 l 2.10802,1.26626 a 25.98827,25.98827 0 0 0 3.00171,-7.26983 z m -3.94021,8.39455 a 23.694092,23.694092 0 0 1 -5.03539,5.02783 l 1.46004,1.98145 a 26.450085,26.450085 0 0 0 5.55665,-5.53439 z m -43.27654,3.21048 -1.18436,5.07248 a 2.4580479,2.4580479 0 0 0 1.83233,2.957046 2.5697774,2.5697774 0 0 0 1.1173,0 l 5.07248,-1.16937 -0.55865,-2.405966 -5.07248,1.17694 1.18436,-5.07249 z m 36.43864,3.03895 a 23.671746,23.671746 0 0 1 -6.5772,2.72617 l 0.58847,2.383556 a 26.092551,26.092551 0 0 0 7.24757,-3.009126 z m -24.43893,0.0745 -0.0224,0.015 -3.5157,0.81935 0.55865,2.3984 2.58461,-0.60331 a 25.995719,25.995719 0 0 0 6.23459,2.413386 l 0.58833,-2.383556 a 23.589811,23.589811 0 0 1 -6.42808,-2.65925 z m 8.58818,3.07634 -0.36486,2.428216 a 26.167037,26.167037 0 0 0 7.85074,0 l -0.36487,-2.428216 a 23.768579,23.768579 0 0 1 -7.12101,0 z" />
        </g>
        <g
           id="g2816">
          <path
             style="color:#bebebe;display:inline;overflow:visible;visibility:visible;fill:#3a76f0;fill-opacity:1;fill-rule:nonzero;stroke:none;stroke-width:2;marker:none;enable-background:accumulate"
             d="m 302.5,142.5 c -6.65502,0 -12,5.34498 -12,12 v 35 c 0,6.65502 5.34498,12 12,12 h 35 c 6.65502,0 12,-5.34498 12,-12 v -35 c 0,-6.65502 -5.34498,-12 -12,-12 z"
             id="path4212" />
          <path
             id="path2808"
             style="fill:#ffffff;stroke-width:0.0505137"
             d="m 320,154.22045 a 17.745462,17.745462 0 0 0 -2.66203,0.20077 l 0.24743,1.64672 a 16.118921,16.118921 0 0 1 4.82919,0 l 0.24744,-1.64672 A 17.745462,17.745462 0 0 0 320,154.22045 Z m -4.26841,0.51904 a 17.558561,17.558561 0 0 0 -4.92005,2.03565 l 0.8537,1.42957 a 16.144178,16.144178 0 0 1 4.46543,-1.84878 z m 8.53682,0 -0.39908,1.61644 a 16.144178,16.144178 0 0 1 4.46543,1.84878 l 0.86376,-1.42957 a 17.684846,17.684846 0 0 0 -4.93011,-2.03565 z M 320,157.55307 c -3.61119,0.002 -6.90833,1.33136 -9.43935,3.52155 a 14.446918,14.446918 0 0 0 -0.0308,0.0267 c -0.50658,0.44085 -0.98183,0.91608 -1.42267,1.42267 a 14.446918,14.446918 0 0 0 -0.0381,0.044 c -0.43887,0.50842 -0.84269,1.04735 -1.20818,1.61387 a 14.446918,14.446918 0 0 0 -0.0173,0.027 c -1.09141,1.69997 -1.83709,3.64192 -2.13608,5.72916 a 14.446918,14.446918 0 0 0 -0.004,0.029 c -0.0941,0.66617 -0.14582,1.34594 -0.14582,2.03801 a 14.446918,14.446918 0 0 0 0.55318,3.9228 14.482277,14.482277 0 0 0 0.0161,0.0737 14.446918,14.446918 0 0 0 0.62037,1.69428 14.482277,14.482277 0 0 0 0.0791,0.21202 14.446918,14.446918 0 0 0 0.78671,1.47201 14.482277,14.482277 0 0 0 0.1621,0.30327 l -1.38912,5.93033 5.92529,-1.38912 c 0.50352,0.31672 1.02014,0.59434 1.54491,0.84195 a 14.446918,14.446918 0 0 0 0.27605,0.12836 c 0.55218,0.24649 1.11385,0.45471 1.68185,0.62728 a 14.446918,14.446918 0 0 0 0.24754,0.0726 c 0.58662,0.16677 1.17897,0.29574 1.77439,0.38596 a 14.446918,14.446918 0 0 0 0.24655,0.034 c 0.59943,0.0802 1.20067,0.12407 1.80083,0.12875 a 14.446918,14.446918 0 0 0 0.12106,0.009 14.446918,14.446918 0 0 0 0.15253,-0.0109 c 0.59604,-0.007 1.19003,-0.0476 1.77863,-0.12707 a 14.446918,14.446918 0 0 0 0.28315,-0.0434 c 0.59072,-0.0916 1.1755,-0.21722 1.75032,-0.38073 a 14.446918,14.446918 0 0 0 0.23708,-0.072 c 0.59106,-0.17907 1.17152,-0.39408 1.73671,-0.6479 a 14.446918,14.446918 0 0 0 0.14187,-0.0665 c 0.58829,-0.27188 1.16018,-0.58262 1.71056,-0.93401 a 14.446918,14.446918 0 0 0 0.0457,-0.0302 c 1.67379,-1.07765 3.14828,-2.51923 4.29652,-4.29623 a 14.446918,14.446918 0 0 0 0.031,-0.0464 c 0.0213,-0.0333 0.0442,-0.0648 0.0653,-0.0983 0.34343,-0.54558 0.6415,-1.10656 0.90382,-1.67691 a 14.446918,14.446918 0 0 0 0.013,-0.0279 c 2.9632,-6.47937 0.75631,-14.314 -5.43782,-18.21779 l -0.046,-0.0132 a 14.446918,14.446918 0 0 0 -7.64875,-2.20406 z m -10.55736,0.13131 a 17.912157,17.912157 0 0 0 -3.75824,3.75824 l 1.34364,1.00021 a 16.093664,16.093664 0 0 1 3.41481,-3.4148 z m 21.11472,0 -1.00021,1.34365 a 16.093664,16.093664 0 0 1 3.41481,3.4148 l 1.34364,-1.00021 a 17.912157,17.912157 0 0 0 -3.75824,-3.75824 z m -25.78221,5.12211 a 17.654537,17.654537 0 0 0 -2.03564,4.92509 l 1.61644,0.39908 a 16.144178,16.144178 0 0 1 1.84878,-4.46544 z m 30.4497,0 -1.42958,0.85873 a 16.053253,16.053253 0 0 1 1.84878,4.4604 l 1.61644,-0.39907 a 17.624229,17.624229 0 0 0 -2.03564,-4.92006 z m -32.80362,6.52633 a 17.780822,17.780822 0 0 0 0,5.3292 l 1.64673,-0.24744 a 16.139127,16.139127 0 0 1 -0.18183,-2.4146 16.088613,16.088613 0 0 1 0.18183,-2.41459 z m 35.15754,0 -1.64673,0.25257 a 16.088613,16.088613 0 0 1 0.18183,2.41459 16.139127,16.139127 0 0 1 -0.18183,2.4146 l 1.64673,0.24744 a 17.780822,17.780822 0 0 0 0,-5.3292 z m -33.22282,6.53146 -1.61644,0.39908 a 17.84649,17.84649 0 0 0 1.63656,4.22796 l -0.40914,1.75792 1.6266,0.37382 0.55565,-2.38431 a 15.972431,15.972431 0 0 1 -1.79323,-4.37447 z m 31.2881,0 a 16.11387,16.11387 0 0 1 -1.84878,4.47046 l 1.42958,0.85874 a 17.624229,17.624229 0 0 0 2.03564,-4.93012 z m -2.67209,5.69286 a 16.068407,16.068407 0 0 1 -3.41481,3.40967 l 0.99015,1.34375 a 17.937414,17.937414 0 0 0 3.7683,-3.75321 z m -29.34846,2.17722 -0.80319,3.43996 a 1.666952,1.666952 0 0 0 1.24262,2.00535 1.7427226,1.7427226 0 0 0 0.7577,0 l 3.43997,-0.79302 -0.37886,-1.63163 -3.43996,0.79815 0.80319,-3.43996 z m 24.71126,2.0609 a 16.053253,16.053253 0 0 1 -4.4604,1.84878 l 0.39908,1.61644 a 17.694948,17.694948 0 0 0 4.91502,-2.04068 z m -16.57353,0.0505 -0.0152,0.0102 -2.38421,0.55565 0.37886,1.6265 1.75278,-0.40914 a 17.629281,17.629281 0 0 0 4.22806,1.63666 l 0.39898,-1.61644 a 15.997688,15.997688 0 0 1 -4.35928,-1.80339 z m 5.82417,2.08626 -0.24743,1.64672 a 17.745462,17.745462 0 0 0 5.32406,0 l -0.24744,-1.64672 a 16.118921,16.118921 0 0 1 -4.82919,0 z" />
        </g>
        <g
           id="g2990">
          <path
             style="color:#bebebe;display:inline;overflow:visible;visibility:visible;fill:#3a76f0;fill-opacity:1;fill-rule:nonzero;stroke:none;stroke-width:2;marker:none;enable-background:accumulate"
             d="m 300,223.5 c -4.71531,0 -8.5,3.78469 -8.5,8.5 v 24 c 0,4.71531 3.78469,8.5 8.5,8.5 h 24 c 4.71531,0 8.5,-3.78469 8.5,-8.5 v -24 c 0,-4.71531 -3.78469,-8.5 -8.5,-8.5 z"
             id="path4208" />
          <path
             id="path2982"
             style="fill:#ffffff;stroke-width:0.0351027"
             d="m 312,231.64472 a 12.331592,12.331592 0 0 0 -1.84988,0.13952 l 0.17193,1.14433 a 11.201284,11.201284 0 0 1 3.35588,0 l 0.17195,-1.14433 A 12.331592,12.331592 0 0 0 312,231.64472 Z m -2.96619,0.36069 a 12.201712,12.201712 0 0 0 -3.41902,1.4146 l 0.59325,0.99344 a 11.218836,11.218836 0 0 1 3.1031,-1.28475 z m 5.93237,0 -0.27733,1.12329 a 11.218836,11.218836 0 0 1 3.10311,1.28475 l 0.60024,-0.99344 a 12.289469,12.289469 0 0 0 -3.42602,-1.4146 z M 312,233.96061 c -2.50947,0.001 -4.80071,0.92519 -6.55955,2.44718 a 10.039383,10.039383 0 0 0 -0.0214,0.0185 c -0.35203,0.30636 -0.68229,0.63661 -0.98863,0.98864 a 10.039383,10.039383 0 0 0 -0.0265,0.0306 c -0.30497,0.35331 -0.5856,0.72782 -0.83958,1.1215 a 10.039383,10.039383 0 0 0 -0.012,0.0188 c -0.75844,1.18133 -1.27662,2.53082 -1.4844,3.98128 a 10.039383,10.039383 0 0 0 -0.003,0.0202 c -0.0654,0.46293 -0.10134,0.93532 -0.10134,1.41625 a 10.039383,10.039383 0 0 0 0.38442,2.72601 10.063955,10.063955 0 0 0 0.0112,0.0512 10.039383,10.039383 0 0 0 0.4311,1.17739 10.063955,10.063955 0 0 0 0.055,0.14733 10.039383,10.039383 0 0 0 0.5467,1.02292 10.063955,10.063955 0 0 0 0.11264,0.21075 l -0.96532,4.12108 4.11758,-0.96533 c 0.3499,0.2201 0.70889,0.41302 1.07358,0.58509 a 10.039383,10.039383 0 0 0 0.19182,0.0892 c 0.38373,0.17129 0.77402,0.31598 1.16874,0.4359 a 10.039383,10.039383 0 0 0 0.17202,0.0505 c 0.40765,0.11589 0.81929,0.20552 1.23305,0.26821 a 10.039383,10.039383 0 0 0 0.17133,0.0237 c 0.41656,0.0558 0.83438,0.0862 1.25144,0.0895 a 10.039383,10.039383 0 0 0 0.0841,0.006 10.039383,10.039383 0 0 0 0.106,-0.008 c 0.4142,-0.005 0.82696,-0.0331 1.236,-0.0883 a 10.039383,10.039383 0 0 0 0.19676,-0.0302 c 0.4105,-0.0637 0.81688,-0.15095 1.21633,-0.26457 a 10.039383,10.039383 0 0 0 0.16475,-0.05 c 0.41073,-0.12444 0.8141,-0.27386 1.20686,-0.45024 a 10.039383,10.039383 0 0 0 0.0986,-0.0462 c 0.40881,-0.18893 0.80623,-0.40486 1.18869,-0.64905 a 10.039383,10.039383 0 0 0 0.0317,-0.021 c 1.16315,-0.74888 2.18779,-1.75065 2.98573,-2.98552 a 10.039383,10.039383 0 0 0 0.0215,-0.0322 c 0.0148,-0.0231 0.0307,-0.045 0.0454,-0.0683 0.23866,-0.37913 0.4458,-0.76896 0.62808,-1.16531 a 10.039383,10.039383 0 0 0 0.009,-0.0194 c 2.05918,-4.50261 0.52558,-9.94702 -3.77882,-12.65982 l -0.0319,-0.009 a 10.039383,10.039383 0 0 0 -5.31524,-1.53164 z m -7.33647,0.0913 a 12.447431,12.447431 0 0 0 -2.61166,2.61166 l 0.93372,0.69506 a 11.183733,11.183733 0 0 1 2.373,-2.373 z m 14.67295,0 -0.69507,0.93372 a 11.183733,11.183733 0 0 1 2.373,2.373 l 0.93372,-0.69506 a 12.447431,12.447431 0 0 0 -2.61165,-2.61166 z m -17.91646,3.55943 a 12.268407,12.268407 0 0 0 -1.4146,3.42252 l 1.12329,0.27732 a 11.218836,11.218836 0 0 1 1.28475,-3.10309 z m 21.15995,0 -0.99343,0.59675 a 11.155651,11.155651 0 0 1 1.28475,3.0996 l 1.12329,-0.27733 a 12.247346,12.247346 0 0 0 -1.41461,-3.41902 z m -22.79573,4.53525 a 12.356164,12.356164 0 0 0 0,3.70334 l 1.14433,-0.17195 a 11.215325,11.215325 0 0 1 -0.12635,-1.67794 11.180222,11.180222 0 0 1 0.12635,-1.67794 z m 24.43151,0 -1.14434,0.17551 a 11.180222,11.180222 0 0 1 0.12636,1.67794 11.215325,11.215325 0 0 1 -0.12636,1.67794 l 1.14434,0.17195 a 12.356164,12.356164 0 0 0 0,-3.70334 z m -23.08705,4.53881 -1.12329,0.27732 a 12.401798,12.401798 0 0 0 1.13728,2.93808 l -0.28431,1.2216 1.13035,0.25977 0.38613,-1.65689 a 11.099486,11.099486 0 0 1 -1.24616,-3.03988 z m 21.74258,0 a 11.197774,11.197774 0 0 1 -1.28474,3.10659 l 0.99343,0.59675 a 12.247346,12.247346 0 0 0 1.4146,-3.42602 z m -1.85688,3.95605 a 11.166181,11.166181 0 0 1 -2.373,2.36944 l 0.68807,0.93378 a 12.464983,12.464983 0 0 0 2.61865,-2.60816 z m -20.39469,1.51298 -0.55814,2.39049 a 1.1583904,1.1583904 0 0 0 0.86351,1.39355 1.2110445,1.2110445 0 0 0 0.52654,0 l 2.39048,-0.55109 -0.26327,-1.13384 -2.39048,0.55465 0.55815,-2.39049 z m 17.17224,1.43215 a 11.155651,11.155651 0 0 1 -3.0996,1.28475 l 0.27732,1.12329 a 12.29649,12.29649 0 0 0 3.41553,-1.4181 z m -11.5172,0.0351 -0.0106,0.007 -1.65682,0.38613 0.26327,1.13028 1.21804,-0.28431 a 12.250856,12.250856 0 0 0 2.93814,1.13734 l 0.27726,-1.12329 a 11.117038,11.117038 0 0 1 -3.02933,-1.25321 z m 4.0473,1.44977 -0.17194,1.14434 a 12.331592,12.331592 0 0 0 3.69977,0 l -0.17195,-1.14434 a 11.201284,11.201284 0 0 1 -3.35588,0 z" />
        </g>
        <g
           id="g3082">
          <path
             style="color:#bebebe;display:inline;overflow:visible;visibility:visible;fill:#3a76f0;fill-opacity:1;fill-rule:nonzero;stroke:none;stroke-width:2;marker:none;enable-background:accumulate"
             d="m 422,101.5 c -2.49699,0 -4.5,2.00301 -4.5,4.5 v 12 c 0,2.49699 2.00301,4.5 4.5,4.5 h 12 c 2.49699,0 4.5,-2.00301 4.5,-4.5 v -12 c 0,-2.49699 -2.00301,-4.5 -4.5,-4.5 z"
             id="path4204" />
          <path
             id="path3074"
             style="fill:#ffffff;stroke-width:0.0179795"
             d="m 428,105.67169 a 6.3161814,6.3161814 0 0 0 -0.9475,0.0715 l 0.0881,0.58612 a 5.7372431,5.7372431 0 0 1 1.71886,0 l 0.0881,-0.58612 a 6.3161814,6.3161814 0 0 0 -0.9475,-0.0715 z m -1.51926,0.18475 a 6.2496575,6.2496575 0 0 0 -1.75121,0.72455 l 0.30386,0.50883 a 5.7462328,5.7462328 0 0 1 1.58939,-0.65804 z m 3.03852,0 -0.14204,0.57534 a 5.7462328,5.7462328 0 0 1 1.58939,0.65804 l 0.30744,-0.50883 a 6.2946061,6.2946061 0 0 0 -1.75479,-0.72455 z M 428,106.85788 c -1.28534,7.7e-4 -2.4589,0.47388 -3.35977,1.25344 a 5.1421232,5.1421232 0 0 0 -0.011,0.009 c -0.18031,0.15691 -0.34946,0.32606 -0.50637,0.50637 a 5.1421232,5.1421232 0 0 0 -0.0136,0.0157 c -0.1562,0.18097 -0.29994,0.37279 -0.43003,0.57443 a 5.1421232,5.1421232 0 0 0 -0.006,0.01 c -0.38846,0.60507 -0.65387,1.29627 -0.76029,2.03919 a 5.1421232,5.1421232 0 0 0 -10e-4,0.0103 c -0.0335,0.23711 -0.0519,0.47907 -0.0519,0.7254 a 5.1421232,5.1421232 0 0 0 0.1969,1.39625 5.1547089,5.1547089 0 0 0 0.006,0.0262 5.1421232,5.1421232 0 0 0 0.22081,0.60305 5.1547089,5.1547089 0 0 0 0.0282,0.0755 5.1421232,5.1421232 0 0 0 0.28001,0.52394 5.1547089,5.1547089 0 0 0 0.0577,0.10794 l -0.49444,2.1108 2.10901,-0.49444 c 0.17922,0.11274 0.36309,0.21155 0.54988,0.29968 a 5.1421232,5.1421232 0 0 0 0.0983,0.0457 c 0.19654,0.0877 0.39646,0.16184 0.59863,0.22327 a 5.1421232,5.1421232 0 0 0 0.0881,0.0258 c 0.20879,0.0594 0.41963,0.10527 0.63156,0.13738 a 5.1421232,5.1421232 0 0 0 0.0878,0.0121 c 0.21336,0.0286 0.42736,0.0442 0.64098,0.0458 a 5.1421232,5.1421232 0 0 0 0.0431,0.003 5.1421232,5.1421232 0 0 0 0.0543,-0.004 c 0.21216,-0.002 0.42358,-0.017 0.63308,-0.0452 a 5.1421232,5.1421232 0 0 0 0.10078,-0.0155 c 0.21026,-0.0326 0.4184,-0.0773 0.623,-0.13551 a 5.1421232,5.1421232 0 0 0 0.0844,-0.0256 c 0.21038,-0.0637 0.41698,-0.14027 0.61815,-0.23061 a 5.1421232,5.1421232 0 0 0 0.0505,-0.0237 c 0.20939,-0.0968 0.41294,-0.20737 0.60884,-0.33244 a 5.1421232,5.1421232 0 0 0 0.0163,-0.0108 c 0.59575,-0.38357 1.12057,-0.89667 1.52927,-1.52917 a 5.1421232,5.1421232 0 0 0 0.011,-0.0165 c 0.008,-0.0118 0.0157,-0.0231 0.0232,-0.035 0.12224,-0.19419 0.22834,-0.39386 0.3217,-0.59686 a 5.1421232,5.1421232 0 0 0 0.005,-0.01 c 1.0547,-2.30622 0.2692,-5.09482 -1.93549,-6.4843 l -0.0164,-0.005 a 5.1421232,5.1421232 0 0 0 -2.72243,-0.7845 z m -3.75771,0.0467 a 6.3755136,6.3755136 0 0 0 -1.33768,1.33768 l 0.47825,0.35601 a 5.7282534,5.7282534 0 0 1 1.21544,-1.21544 z m 7.51541,0 -0.356,0.47825 a 5.7282534,5.7282534 0 0 1 1.21544,1.21544 l 0.47824,-0.35601 a 6.3755136,6.3755136 0 0 0 -1.33768,-1.33768 z m -9.17672,1.82312 a 6.2838184,6.2838184 0 0 0 -0.72455,1.753 l 0.57535,0.14205 a 5.7462328,5.7462328 0 0 1 0.65804,-1.5894 z m 10.83803,0 -0.50883,0.30565 a 5.7138698,5.7138698 0 0 1 0.65804,1.5876 l 0.57534,-0.14204 a 6.2730308,6.2730308 0 0 0 -0.72455,-1.75121 z m -11.67586,2.32294 a 6.3287671,6.3287671 0 0 0 0,1.89683 l 0.58612,-0.0881 a 5.7444349,5.7444349 0 0 1 -0.0647,-0.85944 5.7264554,5.7264554 0 0 1 0.0647,-0.85943 z m 12.5137,0 -0.58613,0.0899 a 5.7264554,5.7264554 0 0 1 0.0647,0.85943 5.7444349,5.7444349 0 0 1 -0.0647,0.85944 l 0.58613,0.0881 a 6.3287671,6.3287671 0 0 0 0,-1.89683 z m -11.82507,2.32475 -0.57535,0.14205 a 6.3521403,6.3521403 0 0 0 0.58251,1.50486 l -0.14563,0.6257 0.57896,0.13306 0.19778,-0.84865 a 5.6851027,5.6851027 0 0 1 -0.63827,-1.55702 z m 11.13644,0 a 5.7354451,5.7354451 0 0 1 -0.65804,1.59118 l 0.50883,0.30565 a 6.2730308,6.2730308 0 0 0 0.72455,-1.75478 z m -0.95108,2.02627 a 5.7192636,5.7192636 0 0 1 -1.21544,1.21362 l 0.35242,0.47828 a 6.3845034,6.3845034 0 0 0 1.34126,-1.33589 z m -10.44607,0.77495 -0.28588,1.22439 a 0.59332191,0.59332191 0 0 0 0.44229,0.71377 0.62029109,0.62029109 0 0 0 0.26969,0 l 1.2244,-0.28226 -0.13485,-0.58075 -1.22439,0.28409 0.28588,-1.2244 z m 8.79554,0.73354 a 5.7138698,5.7138698 0 0 1 -1.5876,0.65804 l 0.14204,0.57534 a 6.298202,6.298202 0 0 0 1.74942,-0.72634 z m -5.89905,0.018 -0.005,0.004 -0.84862,0.19777 0.13485,0.57893 0.62387,-0.14563 a 6.2748287,6.2748287 0 0 0 1.5049,0.58254 l 0.14201,-0.57534 a 5.6940924,5.6940924 0 0 1 -1.5516,-0.64189 z m 2.07301,0.74256 -0.0881,0.58612 a 6.3161814,6.3161814 0 0 0 1.895,0 l -0.0881,-0.58612 a 5.7372431,5.7372431 0 0 1 -1.71886,0 z" />
        </g>
        <g
           id="g3174">
          <path
             style="color:#bebebe;display:inline;overflow:visible;visibility:visible;fill:#3a76f0;fill-opacity:1;fill-rule:nonzero;stroke:none;stroke-width:2;marker:none;enable-background:accumulate"
             d="m 419,140.5 c -1.3844,0 -2.5,1.1156 -2.5,2.5 v 10 c 0,1.3844 1.1156,2.5 2.5,2.5 h 10 c 1.3844,0 2.5,-1.1156 2.5,-2.5 v -10 c 0,-1.3844 -1.1156,-2.5 -2.5,-2.5 z"
             id="path4202" />
          <path
             id="path3166"
             style="fill:#ffffff;stroke-width:0.0128425"
             d="m 424,143.47978 a 4.5115582,4.5115582 0 0 0 -0.67679,0.051 l 0.0629,0.41866 a 4.0980308,4.0980308 0 0 1 1.22775,0 l 0.0629,-0.41866 a 4.5115582,4.5115582 0 0 0 -0.67679,-0.051 z m -1.08519,0.13197 a 4.4640411,4.4640411 0 0 0 -1.25087,0.51753 l 0.21705,0.36345 a 4.104452,4.104452 0 0 1 1.13528,-0.47002 z m 2.17038,0 -0.10146,0.41096 a 4.104452,4.104452 0 0 1 1.13528,0.47002 l 0.2196,-0.36345 a 4.4961472,4.4961472 0 0 0 -1.25342,-0.51753 z M 424,144.32706 c -0.9181,5.5e-4 -1.75635,0.33848 -2.39983,0.89531 a 3.6729452,3.6729452 0 0 0 -0.008,0.007 c -0.12879,0.11209 -0.24963,0.23291 -0.36169,0.3617 a 3.6729452,3.6729452 0 0 0 -0.01,0.0112 c -0.11157,0.12926 -0.21424,0.26627 -0.30716,0.4103 a 3.6729452,3.6729452 0 0 0 -0.004,0.007 c -0.27748,0.4322 -0.46706,0.92592 -0.54307,1.45657 a 3.6729452,3.6729452 0 0 0 -9.3e-4,0.007 c -0.0239,0.16936 -0.0371,0.34218 -0.0371,0.51813 a 3.6729452,3.6729452 0 0 0 0.14064,0.99733 3.6819349,3.6819349 0 0 0 0.004,0.0187 3.6729452,3.6729452 0 0 0 0.15772,0.43075 3.6819349,3.6819349 0 0 0 0.0201,0.0539 3.6729452,3.6729452 0 0 0 0.20001,0.37423 3.6819349,3.6819349 0 0 0 0.0412,0.0771 l -0.35316,1.50771 1.50643,-0.35317 c 0.12801,0.0805 0.25935,0.1511 0.39277,0.21406 a 3.6729452,3.6729452 0 0 0 0.0702,0.0326 c 0.14039,0.0627 0.28318,0.11561 0.42759,0.15948 a 3.6729452,3.6729452 0 0 0 0.0629,0.0185 c 0.14913,0.0424 0.29973,0.0752 0.45111,0.0981 a 3.6729452,3.6729452 0 0 0 0.0627,0.009 c 0.1524,0.0204 0.30526,0.0315 0.45784,0.0327 a 3.6729452,3.6729452 0 0 0 0.0308,0.002 3.6729452,3.6729452 0 0 0 0.0388,-0.003 c 0.15154,-0.002 0.30255,-0.0121 0.45219,-0.0323 a 3.6729452,3.6729452 0 0 0 0.072,-0.011 c 0.15018,-0.0233 0.29886,-0.0552 0.445,-0.0968 a 3.6729452,3.6729452 0 0 0 0.0603,-0.0183 c 0.15027,-0.0455 0.29784,-0.10019 0.44154,-0.16472 a 3.6729452,3.6729452 0 0 0 0.0361,-0.0169 c 0.14956,-0.0691 0.29496,-0.14812 0.43488,-0.23746 a 3.6729452,3.6729452 0 0 0 0.0116,-0.008 c 0.42554,-0.27398 0.80041,-0.64048 1.09233,-1.09227 a 3.6729452,3.6729452 0 0 0 0.008,-0.0118 c 0.005,-0.008 0.0113,-0.0165 0.0166,-0.025 0.0873,-0.1387 0.16309,-0.28133 0.22978,-0.42633 a 3.6729452,3.6729452 0 0 0 0.003,-0.007 c 0.75336,-1.6473 0.19228,-3.63915 -1.3825,-4.63164 l -0.0117,-0.003 a 3.6729452,3.6729452 0 0 0 -1.9446,-0.56036 z m -2.68408,0.0334 a 4.5539383,4.5539383 0 0 0 -0.95549,0.95549 l 0.34161,0.25429 a 4.0916095,4.0916095 0 0 1 0.86817,-0.86817 z m 5.36815,0 -0.25428,0.34161 a 4.0916095,4.0916095 0 0 1 0.86816,0.86817 l 0.3416,-0.25429 a 4.5539383,4.5539383 0 0 0 -0.95548,-0.95549 z m -6.5548,1.30223 a 4.4884417,4.4884417 0 0 0 -0.51754,1.25214 l 0.41096,0.10147 a 4.104452,4.104452 0 0 1 0.47003,-1.13528 z m 7.74145,0 -0.36344,0.21833 a 4.0813356,4.0813356 0 0 1 0.47002,1.134 l 0.41096,-0.10146 a 4.4807363,4.4807363 0 0 0 -0.51754,-1.25087 z m -8.33989,1.65924 a 4.5205479,4.5205479 0 0 0 0,1.35488 l 0.41864,-0.0629 a 4.1031678,4.1031678 0 0 1 -0.0462,-0.61388 4.0903253,4.0903253 0 0 1 0.0462,-0.61388 z m 8.93835,0 -0.41866,0.0642 a 4.0903253,4.0903253 0 0 1 0.0462,0.61388 4.1031678,4.1031678 0 0 1 -0.0462,0.61388 l 0.41866,0.0629 a 4.5205479,4.5205479 0 0 0 0,-1.35488 z m -8.44648,1.66054 -0.41096,0.10146 a 4.5372431,4.5372431 0 0 0 0.41608,1.07491 l -0.10402,0.44693 0.41354,0.095 0.14127,-0.60618 a 4.0607876,4.0607876 0 0 1 -0.45592,-1.11215 z m 7.9546,0 a 4.0967465,4.0967465 0 0 1 -0.47002,1.13656 l 0.36345,0.21832 a 4.4807363,4.4807363 0 0 0 0.51753,-1.25342 z m -0.67934,1.44734 a 4.0851883,4.0851883 0 0 1 -0.86817,0.86686 l 0.25173,0.34163 a 4.5603595,4.5603595 0 0 0 0.95804,-0.9542 z m -7.46147,0.55353 -0.2042,0.87457 a 0.42380137,0.42380137 0 0 0 0.31592,0.50983 0.44306506,0.44306506 0 0 0 0.19263,0 l 0.87457,-0.20162 -0.0963,-0.41482 -0.87457,0.20292 0.2042,-0.87456 z m 6.28252,0.52396 a 4.0813356,4.0813356 0 0 1 -1.134,0.47003 l 0.10146,0.41095 a 4.4987157,4.4987157 0 0 0 1.24958,-0.51881 z m -4.21361,0.0128 -0.004,0.003 -0.60615,0.14127 0.0963,0.41351 0.44563,-0.10401 a 4.4820205,4.4820205 0 0 0 1.07493,0.4161 l 0.10143,-0.41096 a 4.0672089,4.0672089 0 0 1 -1.10829,-0.45849 z m 1.48072,0.5304 -0.0629,0.41866 a 4.5115582,4.5115582 0 0 0 1.35357,0 l -0.0629,-0.41866 a 4.0980308,4.0980308 0 0 1 -1.22776,0 z" />
        </g>
      </g>
    </g>
    <g
       inkscape:groupmode="layer"
       id="layer6"
       inkscape:label="Symbols"
       style="display:inline" />
    <g
       inkscape:groupmode="layer"
       id="layer5"
       inkscape:label="Highlights"
       style="display:inline"
       sodipodi:insensitive="true">
      <path
         style="opacity:0.12999998;color:#bebebe;fill:#ffffff;fill-opacity:1;fill-rule:nonzero;stroke:none;stroke-width:0;marker:none;visibility:visible;display:inline;overflow:visible;enable-background:accumulate"
         d="M 84,47 C 56.836703,47 35,68.836703 35,96 l 0,1 C 35,69.836703 56.836703,48 84,48 l 120,0 c 27.1633,0 49,21.836703 49,49 l 0,-1 C 253,68.836703 231.1633,47 204,47 L 84,47 z"
         id="rect3894"
         inkscape:connector-curvature="0" />
      <path
         style="opacity:0.12999998;color:#bebebe;fill:#ffffff;fill-opacity:1;fill-rule:nonzero;stroke:none;stroke-width:0;marker:none;visibility:visible;display:inline;overflow:visible;enable-background:accumulate"
         d="m 419,141 c -1.1253,0 -2,0.8747 -2,2 l 0,1 c 0,-1.1253 0.8747,-2 2,-2 l 10,0 c 1.1253,0 2,0.8747 2,2 l 0,-1 c 0,-1.1253 -0.8747,-2 -2,-2 l -10,0 z"
         id="rect3896"
         inkscape:connector-curvature="0" />
      <path
         style="opacity:0.12999998;color:#bebebe;fill:#ffffff;fill-opacity:1;fill-rule:nonzero;stroke:none;stroke-width:0;marker:none;visibility:visible;display:inline;overflow:visible;enable-background:accumulate"
         d="m 422,102 c -2.2333,0 -4,1.7667 -4,4 l 0,1 c 0,-2.2333 1.7667,-4 4,-4 l 12,0 c 2.2333,0 4,1.7667 4,4 l 0,-1 c 0,-2.2333 -1.7667,-4 -4,-4 l -12,0 z"
         id="rect3898"
         inkscape:connector-curvature="0" />
      <path
         style="opacity:0.12999998;color:#bebebe;fill:#ffffff;fill-opacity:1;fill-rule:nonzero;stroke:none;stroke-width:0;marker:none;visibility:visible;display:inline;overflow:visible;enable-background:accumulate"
         d="m 424,54 c -3.3413,0 -6,2.658703 -6,6 l 0,1 c 0,-3.341297 2.6587,-6 6,-6 l 16,0 c 3.3413,0 6,2.658703 6,6 l 0,-1 c 0,-3.341297 -2.6587,-6 -6,-6 l -16,0 z"
         id="rect3900"
         inkscape:connector-curvature="0" />
      <path
         style="opacity:0.12999998;color:#bebebe;fill:#ffffff;fill-opacity:1;fill-rule:nonzero;stroke:none;stroke-width:0;marker:none;visibility:visible;display:inline;overflow:visible;enable-background:accumulate"
         d="m 300,224 c -4.4493,0 -8,3.5507 -8,8 l 0,1 c 0,-4.4493 3.5507,-8 8,-8 l 24,0 c 4.4493,0 8,3.5507 8,8 l 0,-1 c 0,-4.4493 -3.5507,-8 -8,-8 l -24,0 z"
         id="rect3902"
         inkscape:connector-curvature="0" />
      <path
         style="opacity:0.12999998;color:#bebebe;fill:#ffffff;fill-opacity:1;fill-rule:nonzero;stroke:none;stroke-width:0;marker:none;visibility:visible;display:inline;overflow:visible;enable-background:accumulate"
         d="m 310,33 c -9.4353,0 -17,7.564703 -17,17 l 0,1 c 0,-9.435297 7.5647,-17 17,-17 l 52,0 c 9.4353,0 17,7.564703 17,17 l 0,-1 c 0,-9.435297 -7.5647,-17 -17,-17 l -52,0 z"
         id="rect3904"
         inkscape:connector-curvature="0" />
      <path
         style="opacity:0.12999998;color:#bebebe;fill:#ffffff;fill-opacity:1;fill-rule:nonzero;stroke:none;stroke-width:0;marker:none;visibility:visible;display:inline;overflow:visible;enable-background:accumulate"
         d="m 302.5,143 c -6.3883,0 -11.5,5.1117 -11.5,11.5 l 0,1 c 0,-6.3883 5.1117,-11.5 11.5,-11.5 l 35,0 c 6.3883,0 11.5,5.1117 11.5,11.5 l 0,-1 c 0,-6.3883 -5.1117,-11.5 -11.5,-11.5 l -35,0 z"
         id="rect3906"
         inkscape:connector-curvature="0" />
      <path
         id="path4085"
         d="m 204,266 c 27.1633,0 49,-21.8367 49,-49 l 0,-1 c 0,27.1633 -21.8367,49 -49,49 L 84,265 C 56.8367,265 35,243.1633 35,216 l 0,1 c 0,27.1633 21.8367,49 49,49 l 120,0 z"
         style="opacity:0.41;color:#bebebe;fill:#000000;fill-opacity:1;fill-rule:nonzero;stroke:none;stroke-width:0;marker:none;visibility:visible;display:inline;overflow:visible;enable-background:accumulate"
         inkscape:connector-curvature="0" />
      <path
         id="path4087"
         d="m 429,156 c 1.1253,0 2,-0.8747 2,-2 l 0,-1 c 0,1.1253 -0.8747,2 -2,2 l -10,0 c -1.1253,0 -2,-0.8747 -2,-2 l 0,1 c 0,1.1253 0.8747,2 2,2 l 10,0 z"
         style="opacity:0.3;color:#bebebe;fill:#000000;fill-opacity:1;fill-rule:nonzero;stroke:none;stroke-width:0;marker:none;visibility:visible;display:inline;overflow:visible;enable-background:accumulate"
         inkscape:connector-curvature="0" />
      <path
         id="path4089"
         d="m 434,123 c 2.2333,0 4,-1.7667 4,-4 l 0,-1 c 0,2.2333 -1.7667,4 -4,4 l -12,0 c -2.2333,0 -4,-1.7667 -4,-4 l 0,1 c 0,2.2333 1.7667,4 4,4 l 12,0 z"
         style="opacity:0.3;color:#bebebe;fill:#000000;fill-opacity:1;fill-rule:nonzero;stroke:none;stroke-width:0;marker:none;visibility:visible;display:inline;overflow:visible;enable-background:accumulate"
         inkscape:connector-curvature="0" />
      <path
         id="path4091"
         d="m 440,83 c 3.3413,0 6,-2.6587 6,-6 l 0,-1 c 0,3.3413 -2.6587,6 -6,6 l -16,0 c -3.3413,0 -6,-2.6587 -6,-6 l 0,1 c 0,3.3413 2.6587,6 6,6 l 16,0 z"
         style="opacity:0.41;color:#bebebe;fill:#000000;fill-opacity:1;fill-rule:nonzero;stroke:none;stroke-width:0;marker:none;visibility:visible;display:inline;overflow:visible;enable-background:accumulate"
         inkscape:connector-curvature="0" />
      <path
         id="path4093"
         d="m 324,265 c 4.4493,0 8,-3.5507 8,-8 l 0,-1 c 0,4.4493 -3.5507,8 -8,8 l -24,0 c -4.4493,0 -8,-3.5507 -8,-8 l 0,1 c 0,4.4493 3.5507,8 8,8 l 24,0 z"
         style="opacity:0.41;color:#bebebe;fill:#000000;fill-opacity:1;fill-rule:nonzero;stroke:none;stroke-width:0;marker:none;visibility:visible;display:inline;overflow:visible;enable-background:accumulate"
         inkscape:connector-curvature="0" />
      <path
         id="path4095"
         d="m 362,120 c 9.4353,0 17,-7.5647 17,-17 l 0,-1 c 0,9.4353 -7.5647,17 -17,17 l -52,0 c -9.4353,0 -17,-7.5647 -17,-17 l 0,1 c 0,9.4353 7.5647,17 17,17 l 52,0 z"
         style="opacity:0.41;color:#bebebe;fill:#000000;fill-opacity:1;fill-rule:nonzero;stroke:none;stroke-width:0;marker:none;visibility:visible;display:inline;overflow:visible;enable-background:accumulate"
         inkscape:connector-curvature="0" />
      <path
         id="path4097"
         d="m 337.5,202 c 6.3883,0 11.5,-5.1117 11.5,-11.5 l 0,-1 c 0,6.3883 -5.1117,11.5 -11.5,11.5 l -35,0 c -6.3883,0 -11.5,-5.1117 -11.5,-11.5 l 0,1 c 0,6.3883 5.1117,11.5 11.5,11.5 l 35,0 z"
         style="opacity:0.41;color:#bebebe;fill:#000000;fill-opacity:1;fill-rule:nonzero;stroke:none;stroke-width:0;marker:none;visibility:visible;display:inline;overflow:visible;enable-background:accumulate"
         inkscape:connector-curvature="0" />
      <path
         inkscape:connector-curvature="0"
         id="path4280"
         d="M 84,265 C 56.836703,265 35,243.1633 35,216 l 0,-1 c 0,27.1633 21.836703,49 49,49 l 120,0 c 27.1633,0 49,-21.8367 49,-49 l 0,1 c 0,27.1633 -21.8367,49 -49,49 l -120,0 z"
         style="opacity:0.1;color:#bebebe;fill:#ffffff;fill-opacity:1;fill-rule:nonzero;stroke:none;stroke-width:0;marker:none;visibility:visible;display:inline;overflow:visible;enable-background:accumulate" />
      <path
         style="opacity:0.1;color:#bebebe;fill:#ffffff;fill-opacity:1;fill-rule:nonzero;stroke:none;stroke-width:0;marker:none;visibility:visible;display:inline;overflow:visible;enable-background:accumulate"
         d="m 300,264 c -4.4493,0 -8,-3.5507 -8,-8 l 0,-1 c 0,4.4493 3.5507,8 8,8 l 24,0 c 4.4493,0 8,-3.5507 8,-8 l 0,1 c 0,4.4493 -3.5507,8 -8,8 l -24,0 z"
         id="path4294"
         inkscape:connector-curvature="0" />
      <path
         style="opacity:0.1;color:#bebebe;fill:#ffffff;fill-opacity:1;fill-rule:nonzero;stroke:none;stroke-width:0;marker:none;visibility:visible;display:inline;overflow:visible;enable-background:accumulate"
         d="m 302.5,201 c -6.3883,0 -11.5,-5.1117 -11.5,-11.5 l 0,-1 c 0,6.3883 5.1117,11.5 11.5,11.5 l 35,0 c 6.3883,0 11.5,-5.1117 11.5,-11.5 l 0,1 c 0,6.3883 -5.1117,11.5 -11.5,11.5 l -35,0 z"
         id="path4296"
         inkscape:connector-curvature="0" />
      <path
         style="opacity:0.1;color:#bebebe;fill:#ffffff;fill-opacity:1;fill-rule:nonzero;stroke:none;stroke-width:0;marker:none;visibility:visible;display:inline;overflow:visible;enable-background:accumulate"
         d="m 310,119 c -9.4353,0 -17,-7.5647 -17,-17 l 0,-1 c 0,9.4353 7.5647,17 17,17 l 52,0 c 9.4353,0 17,-7.5647 17,-17 l 0,1 c 0,9.4353 -7.5647,17 -17,17 l -52,0 z"
         id="path4298"
         inkscape:connector-curvature="0" />
      <path
         style="opacity:0.1;color:#bebebe;fill:#ffffff;fill-opacity:1;fill-rule:nonzero;stroke:none;stroke-width:0;marker:none;visibility:visible;display:inline;overflow:visible;enable-background:accumulate"
         d="m 424,82 c -3.3413,0 -6,-2.658703 -6,-6 l 0,-1 c 0,3.341297 2.6587,6 6,6 l 16,0 c 3.3413,0 6,-2.658703 6,-6 l 0,1 c 0,3.341297 -2.6587,6 -6,6 l -16,0 z"
         id="path4300"
         inkscape:connector-curvature="0" />
      <path
         style="opacity:0.1;color:#bebebe;fill:#ffffff;fill-opacity:1;fill-rule:nonzero;stroke:none;stroke-width:0;marker:none;visibility:visible;display:inline;overflow:visible;enable-background:accumulate"
         d="m 422,122 c -2.2333,0 -4,-1.7667 -4,-4 l 0,-1 c 0,2.2333 1.7667,4 4,4 l 12,0 c 2.2333,0 4,-1.7667 4,-4 l 0,1 c 0,2.2333 -1.7667,4 -4,4 l -12,0 z"
         id="path4302"
         inkscape:connector-curvature="0" />
      <path
         style="opacity:0.1;color:#bebebe;fill:#ffffff;fill-opacity:1;fill-rule:nonzero;stroke:none;stroke-width:0;marker:none;visibility:visible;display:inline;overflow:visible;enable-background:accumulate"
         d="m 419,154.5 c -1.1253,0 -2,-0.8747 -2,-2 l 0,-1 c 0,1.1253 0.8747,2 2,2 l 10,0 c 1.1253,0 2,-0.8747 2,-2 l 0,1 c 0,1.1253 -0.8747,2 -2,2 l -10,0 z"
         id="path4304"
         inkscape:connector-curvature="0" />
    </g>
    <g
       inkscape:groupmode="layer"
       id="layer3"
       inkscape:label="Border"
       style="display:inline"
       sodipodi:insensitive="true">
      <path
         style="opacity:0.41;color:#bebebe;fill:#000000;fill-opacity:1;fill-rule:nonzero;stroke:none;stroke-width:0;marker:none;visibility:visible;display:inline;overflow:visible;enable-background:accumulate"
         d="m 422,101 c -2.77,0 -5,2.23 -5,5 l 0,12 c 0,2.77 2.23,5 5,5 l 12,0 c 2.77,0 5,-2.23 5,-5 l 0,-12 c 0,-2.77 -2.23,-5 -5,-5 l -12,0 z m 0,1 12,0 c 2.2333,0 4,1.7667 4,4 l 0,12 c 0,2.2333 -1.7667,4 -4,4 l -12,0 c -2.2333,0 -4,-1.7667 -4,-4 l 0,-12 c 0,-2.2333 1.7667,-4 4,-4 z"
         id="rect4099"
         inkscape:connector-curvature="0" />
      <path
         style="opacity:0.41;color:#bebebe;fill:#000000;fill-opacity:1;fill-rule:nonzero;stroke:none;stroke-width:0;marker:none;visibility:visible;display:inline;overflow:visible;enable-background:accumulate"
         d="m 424,53 c -3.878,0 -7,3.122 -7,7 l 0,16 c 0,3.878 3.122,7 7,7 l 16,0 c 3.878,0 7,-3.122 7,-7 l 0,-16 c 0,-3.878 -3.122,-7 -7,-7 l -16,0 z m 0,1 16,0 c 3.3413,0 6,2.658703 6,6 l 0,16 c 0,3.341297 -2.6587,6 -6,6 l -16,0 c -3.3413,0 -6,-2.658703 -6,-6 l 0,-16 c 0,-3.341297 2.6587,-6 6,-6 z"
         id="rect4151"
         inkscape:connector-curvature="0" />
      <path
         style="opacity:0.41;color:#bebebe;fill:#000000;fill-opacity:1;fill-rule:nonzero;stroke:none;stroke-width:0;marker:none;visibility:visible;display:inline;overflow:visible;enable-background:accumulate"
         d="m 419,140 c -1.662,0 -3,1.338 -3,3 l 0,10 c 0,1.662 1.338,3 3,3 l 10,0 c 1.662,0 3,-1.338 3,-3 l 0,-10 c 0,-1.662 -1.338,-3 -3,-3 l -10,0 z m 0,1 10,0 c 1.1253,0 2,0.8747 2,2 l 0,10 c 0,1.1253 -0.8747,2 -2,2 l -10,0 c -1.1253,0 -2,-0.8747 -2,-2 l 0,-10 c 0,-1.1253 0.8747,-2 2,-2 z"
         id="rect4095"
         inkscape:connector-curvature="0" />
      <path
         style="opacity:0.41;color:#bebebe;fill:#000000;fill-opacity:1;fill-rule:nonzero;stroke:none;stroke-width:0;marker:none;visibility:visible;display:inline;overflow:visible;enable-background:accumulate"
         d="m 300,223 c -4.986,0 -9,4.014 -9,9 l 0,24 c 0,4.986 4.014,9 9,9 l 24,0 c 4.986,0 9,-4.014 9,-9 l 0,-24 c 0,-4.986 -4.014,-9 -9,-9 l -24,0 z m 0,1 24,0 c 4.4493,0 8,3.5507 8,8 l 0,24 c 0,4.4493 -3.5507,8 -8,8 l -24,0 c -4.4493,0 -8,-3.5507 -8,-8 l 0,-24 c 0,-4.4493 3.5507,-8 8,-8 z"
         id="rect4783"
         inkscape:connector-curvature="0" />
      <path
         style="opacity:0.41;color:#bebebe;fill:#000000;fill-opacity:1;fill-rule:nonzero;stroke:none;stroke-width:0;marker:none;visibility:visible;display:inline;overflow:visible;enable-background:accumulate"
         d="m 302.5,142 c -6.925,0 -12.5,5.575 -12.5,12.5 l 0,35 c 0,6.925 5.575,12.5 12.5,12.5 l 35,0 c 6.925,0 12.5,-5.575 12.5,-12.5 l 0,-35 c 0,-6.925 -5.575,-12.5 -12.5,-12.5 l -35,0 z m 0,1 35,0 c 6.3883,0 11.5,5.1117 11.5,11.5 l 0,35 c 0,6.3883 -5.1117,11.5 -11.5,11.5 l -35,0 c -6.3883,0 -11.5,-5.1117 -11.5,-11.5 l 0,-35 c 0,-6.3883 5.1117,-11.5 11.5,-11.5 z"
         id="rect4515"
         inkscape:connector-curvature="0" />
      <path
         style="opacity:0.41;color:#bebebe;fill:#000000;fill-opacity:1;fill-rule:nonzero;stroke:none;stroke-width:0;marker:none;visibility:visible;display:inline;overflow:visible;enable-background:accumulate"
         d="m 310,32 c -9.972,0 -18,8.028 -18,18 l 0,52 c 0,9.972 8.028,18 18,18 l 52,0 c 9.972,0 18,-8.028 18,-18 l 0,-52 c 0,-9.972 -8.028,-18 -18,-18 l -52,0 z m 0,1 52,0 c 9.4353,0 17,7.564703 17,17 l 0,52 c 0,9.4353 -7.5647,17 -17,17 l -52,0 c -9.4353,0 -17,-7.5647 -17,-17 l 0,-52 c 0,-9.435297 7.5647,-17 17,-17 z"
         id="rect4511"
         inkscape:connector-curvature="0" />
      <path
         style="opacity:0.41;color:#bebebe;fill:#000000;fill-opacity:1;fill-rule:nonzero;stroke:none;stroke-width:0;marker:none;visibility:visible;display:inline;overflow:visible;enable-background:accumulate"
         d="M 84,46 C 56.3,46 34,68.3 34,96 l 0,120 c 0,27.7 22.3,50 50,50 l 120,0 c 27.7,0 50,-22.3 50,-50 L 254,96 C 254,68.3 231.7,46 204,46 L 84,46 z m 0,1 120,0 c 27.1633,0 49,21.836703 49,49 l 0,120 c 0,27.1633 -21.8367,49 -49,49 L 84,265 C 56.836703,265 35,243.1633 35,216 L 35,96 C 35,68.836703 56.836703,47 84,47 z"
         id="rect4040"
         inkscape:connector-curvature="0" />
    </g>
  </g>
  <style
     type="text/css"
     id="style134">
	.st0{fill:#EF443B;}
</style>
</svg>
